<svg width="40" height="40" viewBox="0 0 40 40" fill="none" xmlns="http://www.w3.org/2000/svg">
<path d="M27.5 37.5H12.5C11.125 37.5 10 36.375 10 35V31.25H12.5V35H27.5V31.25H30V35C30 36.375 28.875 37.5 27.5 37.5ZM18.75 18.5V31.25H21.25V18.5L24.5 21.75L26.25 20L20 13.75L13.75 20L15.5 21.75L18.75 18.5Z" fill="url(#paint0_linear_92_114)"/>
<path d="M31 11.375C29.875 6.25 25.375 2.5 20 2.5C14.625 2.5 10.125 6.25 9 11.375C5.25 12.125 2.5 15.5 2.5 19.375C2.5 23.875 6.125 27.5 10.625 27.5H15V25H10.625C7.5 25 5 22.5 5 19.375C5 16.5 7.25 14 10.125 13.75H11.25L11.375 12.75C11.875 8.25 15.625 5 20 5C24.375 5 28.125 8.25 28.625 12.625L28.75 13.75L29.75 13.875C32.625 14.125 34.875 16.625 34.875 19.5C34.875 22.625 32.375 25.125 29.25 25.125H25V27.625H29.375C33.875 27.625 37.5 24 37.5 19.5C37.5 15.5 34.75 12.125 31 11.375Z" fill="url(#paint1_linear_92_114)"/>
<defs>
<linearGradient id="paint0_linear_92_114" x1="20" y1="13.75" x2="20" y2="37.5" gradientUnits="userSpaceOnUse">
<stop stop-color="#BAB3FD"/>
<stop offset="1" stop-color="#703AB4"/>
</linearGradient>
<linearGradient id="paint1_linear_92_114" x1="20" y1="2.5" x2="20" y2="27.625" gradientUnits="userSpaceOnUse">
<stop stop-color="#BAB3FD"/>
<stop offset="1" stop-color="#703AB4"/>
</linearGradient>
</defs>
</svg>
