<svg width="27" height="27" viewBox="0 0 27 27" fill="none" xmlns="http://www.w3.org/2000/svg">
<path d="M9.70312 5.0625C8.92087 5.06561 8.17153 5.37774 7.61839 5.93089C7.06524 6.48403 6.75311 7.23337 6.75 8.01562C6.75 9.63731 8.08144 10.9688 9.70312 10.9688C11.3248 10.9688 12.6562 9.63731 12.6562 8.01562C12.6562 6.39394 11.3248 5.0625 9.70312 5.0625ZM17.2969 5.0625C16.5146 5.06561 15.7653 5.37774 15.2121 5.93089C14.659 6.48403 14.3469 7.23337 14.3438 8.01562C14.3438 9.63731 15.6752 10.9688 17.2969 10.9688C18.9186 10.9688 20.25 9.63731 20.25 8.01562C20.25 6.39394 18.9186 5.0625 17.2969 5.0625ZM9.70312 6.75C10.4119 6.75 10.9688 7.30687 10.9688 8.01562C10.9688 8.72438 10.4119 9.28125 9.70312 9.28125C8.99438 9.28125 8.4375 8.72438 8.4375 8.01562C8.4375 7.30687 8.99438 6.75 9.70312 6.75ZM17.2969 6.75C18.0056 6.75 18.5625 7.30687 18.5625 8.01562C18.5625 8.72438 18.0056 9.28125 17.2969 9.28125C16.5881 9.28125 16.0312 8.72438 16.0312 8.01562C16.0312 7.30687 16.5881 6.75 17.2969 6.75ZM5.90625 10.125C4.05 10.125 2.53125 11.6438 2.53125 13.5C2.53125 14.4391 2.93372 15.2862 3.55978 15.8996C2.98546 16.2872 2.51462 16.8093 2.18829 17.4205C1.86196 18.0317 1.69004 18.7134 1.6875 19.4062H3.375C3.375 17.9989 4.49887 16.875 5.90625 16.875C7.31362 16.875 8.4375 17.9989 8.4375 19.4062H10.125C10.1225 18.7134 9.95054 18.0317 9.62421 17.4205C9.29788 16.8093 8.82704 16.2872 8.25272 15.8996C8.87878 15.2862 9.28125 14.4399 9.28125 13.5C9.28125 11.6438 7.7625 10.125 5.90625 10.125ZM10.125 19.4062C9.59766 20.1116 9.28125 20.9984 9.28125 21.9375H10.9688C10.9688 20.5301 12.0926 19.4062 13.5 19.4062C14.9074 19.4062 16.0312 20.5301 16.0312 21.9375H17.7188C17.7173 21.0249 17.4214 20.1372 16.875 19.4062C16.5881 19.024 16.2422 18.6975 15.8465 18.4309C16.4725 17.8175 16.875 16.9712 16.875 16.0312C16.875 14.175 15.3562 12.6562 13.5 12.6562C11.6438 12.6562 10.125 14.175 10.125 16.0312C10.125 16.9703 10.5275 17.8175 11.1535 18.4309C10.7586 18.6962 10.4109 19.0259 10.125 19.4062ZM16.875 19.4062H18.5625C18.5625 17.9989 19.6864 16.875 21.0938 16.875C22.5011 16.875 23.625 17.9989 23.625 19.4062H25.3125C25.31 18.7134 25.138 18.0317 24.8117 17.4205C24.4854 16.8093 24.0145 16.2872 23.4402 15.8996C24.0663 15.2862 24.4688 14.4399 24.4688 13.5C24.4688 11.6438 22.95 10.125 21.0938 10.125C19.2375 10.125 17.7188 11.6438 17.7188 13.5C17.7188 14.4391 18.1212 15.2862 18.7473 15.8996C18.173 16.2872 17.7021 16.8093 17.3758 17.4205C17.0495 18.0317 16.8775 18.7134 16.875 19.4062ZM5.90625 11.8125C6.84872 11.8125 7.59375 12.5575 7.59375 13.5C7.59375 14.4425 6.84872 15.1875 5.90625 15.1875C4.96378 15.1875 4.21875 14.4425 4.21875 13.5C4.21875 12.5575 4.96378 11.8125 5.90625 11.8125ZM21.0938 11.8125C22.0362 11.8125 22.7812 12.5575 22.7812 13.5C22.7812 14.4425 22.0362 15.1875 21.0938 15.1875C20.1513 15.1875 19.4062 14.4425 19.4062 13.5C19.4062 12.5575 20.1513 11.8125 21.0938 11.8125ZM13.5 14.3438C14.4425 14.3438 15.1875 15.0888 15.1875 16.0312C15.1875 16.9737 14.4425 17.7188 13.5 17.7188C12.5575 17.7188 11.8125 16.9737 11.8125 16.0312C11.8125 15.0888 12.5575 14.3438 13.5 14.3438Z" fill="url(#paint0_linear_46_128)"/>
<defs>
<linearGradient id="paint0_linear_46_128" x1="13.5" y1="5.0625" x2="13.5" y2="21.9375" gradientUnits="userSpaceOnUse">
<stop stop-color="#BCB7FF"/>
<stop offset="1" stop-color="#703AB4"/>
</linearGradient>
</defs>
</svg>
