<svg width="27" height="27" viewBox="0 0 27 27" fill="none" xmlns="http://www.w3.org/2000/svg">
<path d="M11.3052 16.7695C12.5332 16.2109 13.5329 15.2487 14.138 14.0429C14.7432 12.8372 14.9174 11.4606 14.6316 10.1422C14.3457 8.82374 13.6172 7.64287 12.567 6.79599C11.5169 5.9491 10.2085 5.48725 8.85938 5.48725C7.5103 5.48725 6.20188 5.9491 5.15174 6.79599C4.1016 7.64287 3.37303 8.82374 3.08721 10.1422C2.80139 11.4606 2.97554 12.8372 3.58072 14.0429C4.18589 15.2487 5.18559 16.2109 6.41356 16.7695C4.07314 17.3762 2.04424 18.8362 0.72563 20.8628C0.69442 20.9092 0.672741 20.9613 0.661854 21.0161C0.650967 21.071 0.651089 21.1274 0.662212 21.1822C0.673336 21.237 0.69524 21.289 0.72665 21.3353C0.758061 21.3816 0.798351 21.4211 0.84518 21.4516C0.892009 21.4822 0.944442 21.5031 0.999431 21.5132C1.05442 21.5233 1.11087 21.5224 1.1655 21.5105C1.22012 21.4986 1.27184 21.4759 1.31764 21.4439C1.36343 21.4118 1.4024 21.3709 1.43227 21.3237C2.23672 20.0866 3.33743 19.0701 4.63446 18.3664C5.93149 17.6627 7.38375 17.2941 8.85938 17.2941C10.335 17.2941 11.7873 17.6627 13.0843 18.3664C14.3813 19.0701 15.482 20.0866 16.2865 21.3237C16.3164 21.3709 16.3553 21.4118 16.4011 21.4439C16.4469 21.4759 16.4986 21.4986 16.5533 21.5105C16.6079 21.5224 16.6643 21.5233 16.7193 21.5132C16.7743 21.5031 16.8268 21.4822 16.8736 21.4516C16.9204 21.4211 16.9607 21.3816 16.9921 21.3353C17.0235 21.289 17.0454 21.237 17.0565 21.1822C17.0677 21.1274 17.0678 21.071 17.0569 21.0161C17.046 20.9613 17.0243 20.9092 16.9931 20.8628C15.6745 18.8362 13.6456 17.3762 11.3052 16.7695ZM3.79688 11.3906C3.79688 10.3894 4.09379 9.41058 4.65006 8.57806C5.20634 7.74554 5.99699 7.09666 6.92205 6.71349C7.8471 6.33032 8.865 6.23007 9.84702 6.42541C10.8291 6.62075 11.7311 7.1029 12.4391 7.81091C13.1471 8.51891 13.6293 9.42096 13.8246 10.403C14.0199 11.385 13.9197 12.4029 13.5365 13.328C13.1534 14.253 12.5045 15.0437 11.672 15.5999C10.8394 16.1562 9.86065 16.4531 8.85938 16.4531C7.51715 16.4517 6.23029 15.9179 5.28119 14.9688C4.33209 14.0197 3.79828 12.7329 3.79688 11.3906ZM26.1563 21.4471C26.0625 21.508 25.9485 21.5292 25.8391 21.506C25.7298 21.4829 25.6341 21.4173 25.573 21.3237C24.7691 20.0851 23.6677 19.0677 22.3694 18.3642C21.0711 17.6608 19.6172 17.2939 18.1406 17.2969C18.0287 17.2969 17.9214 17.2524 17.8423 17.1733C17.7632 17.0942 17.7188 16.9869 17.7188 16.875C17.7188 16.7631 17.7632 16.6558 17.8423 16.5767C17.9214 16.4976 18.0287 16.4531 18.1406 16.4531C18.8863 16.4527 19.6227 16.2876 20.2972 15.9695C20.9716 15.6515 21.5675 15.1884 22.0422 14.6133C22.5168 14.0382 22.8586 13.3654 23.0431 12.6429C23.2275 11.9203 23.2501 11.166 23.1091 10.4338C22.9682 9.70151 22.6672 9.00945 22.2277 8.40703C21.7883 7.80461 21.2211 7.30671 20.5669 6.94893C19.9127 6.59114 19.1875 6.38231 18.4431 6.33735C17.6988 6.29238 16.9537 6.41241 16.2612 6.68884C16.2097 6.70961 16.1547 6.72005 16.0992 6.71955C16.0437 6.71906 15.9889 6.70764 15.9378 6.68594C15.8867 6.66425 15.8404 6.63271 15.8015 6.59312C15.7626 6.55354 15.7319 6.50668 15.7112 6.45522C15.6904 6.40377 15.6799 6.34873 15.6804 6.29324C15.6809 6.23775 15.6924 6.1829 15.7141 6.13183C15.7357 6.08076 15.7673 6.03446 15.8069 5.99557C15.8465 5.95669 15.8933 5.92598 15.9448 5.9052C17.3853 5.28982 19.0114 5.2719 20.4651 5.85539C21.9189 6.43887 23.0813 7.57597 23.6967 9.01653C24.3121 10.4571 24.33 12.0831 23.7465 13.5369C23.1631 14.9907 22.026 16.1531 20.5854 16.7685C22.9267 17.3764 24.9557 18.8385 26.2733 20.867C26.3338 20.9597 26.3555 21.0725 26.3336 21.181C26.3117 21.2895 26.248 21.3851 26.1563 21.4471Z" fill="url(#paint0_linear_46_3)"/>
<defs>
<linearGradient id="paint0_linear_46_3" x1="13.4978" y1="5.43036" x2="13.4978" y2="21.5202" gradientUnits="userSpaceOnUse">
<stop stop-color="#BAB3FD"/>
<stop offset="1" stop-color="#703AB4"/>
</linearGradient>
</defs>
</svg>
