<svg width="27" height="27" viewBox="0 0 27 27" fill="none" xmlns="http://www.w3.org/2000/svg">
<path d="M10.125 16.875H22.5M10.125 12.375H14.625M10.125 7.875H14.625M3.9375 23.625C4.68342 23.625 5.39879 23.3287 5.92624 22.8012C6.45368 22.2738 6.75 21.5584 6.75 20.8125V3.375H25.875V20.8125C25.875 21.5584 25.5787 22.2738 25.0512 22.8012C24.5238 23.3287 23.8084 23.625 23.0625 23.625H3.9375ZM3.9375 23.625C3.19158 23.625 2.47621 23.3287 1.94876 22.8012C1.42132 22.2738 1.125 21.5584 1.125 20.8125V7.875H6.77813M18 7.875H21.375V12.375H18V7.875Z" stroke="url(#paint0_linear_46_128)" stroke-width="2.25"/>
<defs>
<linearGradient id="paint0_linear_46_128" x1="13.5" y1="3.375" x2="13.5" y2="23.625" gradientUnits="userSpaceOnUse">
<stop stop-color="#BCB7FF"/>
<stop offset="1" stop-color="#703AB4"/>
</linearGradient>
</defs>
</svg>
