<svg width="18" height="16" viewBox="0 0 18 16" fill="none" xmlns="http://www.w3.org/2000/svg">
<path d="M9.6823 12.6769C9.65734 12.6537 9.63754 12.6261 9.62404 12.5958C9.61053 12.5654 9.60358 12.5329 9.60358 12.5C9.60358 12.4672 9.61053 12.4346 9.62404 12.4043C9.63754 12.3739 9.65734 12.3464 9.6823 12.3231L14.0554 8.25002H2.89353C2.82235 8.25002 2.75408 8.22368 2.70374 8.17679C2.6534 8.12991 2.62512 8.06632 2.62512 8.00002C2.62512 7.93371 2.6534 7.87012 2.70374 7.82324C2.75408 7.77636 2.82235 7.75002 2.89353 7.75002L14.0554 7.75002L9.6823 3.67689C9.65736 3.65366 9.63758 3.62609 9.62408 3.59574C9.61059 3.56539 9.60364 3.53287 9.60364 3.50002C9.60364 3.46717 9.61059 3.43464 9.62408 3.40429C9.63758 3.37394 9.65736 3.34637 9.6823 3.32314C9.70724 3.29991 9.73684 3.28149 9.76942 3.26892C9.80201 3.25635 9.83693 3.24988 9.8722 3.24988C9.90747 3.24988 9.94239 3.25635 9.97497 3.26892C10.0076 3.28149 10.0372 3.29991 10.0621 3.32314L14.8935 7.82314C14.9184 7.84636 14.9382 7.87393 14.9517 7.90428C14.9652 7.93463 14.9722 7.96716 14.9722 8.00002C14.9722 8.03287 14.9652 8.0654 14.9517 8.09575C14.9382 8.1261 14.9184 8.15367 14.8935 8.17689L10.0621 12.6769C10.0372 12.7001 10.0076 12.7186 9.97498 12.7312C9.9424 12.7437 9.90747 12.7502 9.8722 12.7502C9.83692 12.7502 9.802 12.7437 9.76941 12.7312C9.73683 12.7186 9.70723 12.7001 9.6823 12.6769Z" fill="#8B81FF"/>
</svg>
