<svg width="41" height="40" viewBox="0 0 41 40" fill="none" xmlns="http://www.w3.org/2000/svg">
<path d="M14.0776 16.2414L25.2612 27.425C26.5169 28.68 27.8226 28.4793 28.994 27.3071L37.2976 19.0371C38.469 17.8657 38.654 16.56 37.3976 15.3043L35.7069 13.63C33.7154 15.4043 28.1233 19.3893 27.2533 18.5186C26.9683 18.2336 27.2033 17.9829 27.3704 17.815C29.2119 15.9236 31.6726 12.91 31.9912 9.88L23.1683 1.05714C22.1304 0.285713 20.5897 0.571427 19.7533 1.24143C18.0626 3.63571 18.0962 7.63643 14.0776 12.425C12.9733 13.7643 12.789 14.9529 14.0776 16.2414ZM4.20044 37.7371C6.41044 39.9136 9.18972 39.98 11.1647 38.005C12.7219 36.465 14.3454 32.33 15.4676 30.405L20.1547 35.075C21.494 36.415 22.984 36.4479 24.2397 35.1929L25.2947 34.1214C26.5497 32.8657 26.5162 31.3757 25.194 30.0357L11.9183 16.7614C10.579 15.405 9.10615 15.3721 7.8333 16.6614L6.77901 17.7143C5.48972 18.9864 5.5233 20.4429 6.87901 21.7993L11.5333 26.47C9.62472 27.5914 5.4733 29.2321 3.9333 30.7721C1.90687 32.7814 2.00758 35.5779 4.20044 37.7371ZM6.47758 35.3757C5.92472 34.8064 5.9083 33.9029 6.47758 33.3336C7.0633 32.7643 7.96758 32.7643 8.53687 33.3336C9.10615 33.9193 9.10615 34.79 8.53687 35.3764C7.96758 35.9621 7.0633 35.9779 6.47758 35.3757Z" fill="url(#paint0_linear_13_103)"/>
<defs>
<linearGradient id="paint0_linear_13_103" x1="20.3714" y1="0.594727" x2="20.3714" y2="39.4304" gradientUnits="userSpaceOnUse">
<stop stop-color="#BCB7FF"/>
<stop offset="1" stop-color="#703AB4"/>
</linearGradient>
</defs>
</svg>
