<svg width="49" height="48" viewBox="0 0 49 48" fill="none" xmlns="http://www.w3.org/2000/svg">
<path d="M24.9854 36.9212L24.8009 36.9712V37.1624V38.8424C24.8009 39.3044 24.4328 39.6724 23.9709 39.6724C23.5089 39.6724 23.1409 39.3044 23.1409 38.8424V37.1624V36.9708L22.9558 36.921C22.1275 36.6983 21.3955 36.209 20.8732 35.5286C20.3509 34.8483 20.0671 34.0149 20.0659 33.1573C20.0659 32.6954 20.434 32.3274 20.8959 32.3274C21.3578 32.3274 21.7259 32.6955 21.7259 33.1574C21.7259 34.4043 22.7216 35.4024 23.9559 35.4024C25.1889 35.4024 26.2009 34.3905 26.2009 33.1574C26.2009 31.9244 25.1889 30.9124 23.9559 30.9124H23.8543C22.8415 30.8841 21.8795 30.4624 21.1722 29.7368C20.4643 29.0104 20.0674 28.0366 20.0659 27.0223C20.0659 25.2193 21.2912 23.7103 22.9563 23.2587L23.1409 23.2087V23.0174V21.3374C23.1409 20.8755 23.5089 20.5074 23.9709 20.5074C24.4328 20.5074 24.8009 20.8755 24.8009 21.3374V23.0174V23.2087L24.9854 23.2587C26.6505 23.7103 27.8759 25.2194 27.8759 27.0224C27.8759 27.4844 27.5078 27.8524 27.0459 27.8524C26.5839 27.8524 26.2159 27.4844 26.2159 27.0224C26.2159 25.7894 25.2039 24.7774 23.9709 24.7774C22.7378 24.7774 21.7259 25.7894 21.7259 27.0224C21.7259 28.2555 22.7378 29.2674 23.9709 29.2674H24.0725C26.187 29.3256 27.8759 31.0455 27.8759 33.1574C27.8759 34.9604 26.6505 36.4696 24.9854 36.9212Z" fill="url(#paint0_linear_31_98)" stroke="#100F17" stroke-width="0.5"/>
<path d="M20.3741 12.7068L20.52 12.5438L20.3779 12.3776L16.2224 7.51499C15.9895 6.98471 15.9338 6.39306 16.0642 5.82812C16.1972 5.25197 16.5164 4.73569 16.9723 4.35914C17.4282 3.98259 17.9955 3.76676 18.5864 3.74503C19.1773 3.72329 19.7589 3.89687 20.2413 4.2389L20.4233 4.36796L20.5721 4.20175L21.8962 2.72317C21.8963 2.72305 21.8965 2.72293 21.8966 2.7228C22.1577 2.4326 22.4771 2.20066 22.8338 2.04209C23.1907 1.88344 23.5771 1.80178 23.9676 1.80243C24.3582 1.80308 24.7443 1.88602 25.1006 2.04586C25.4559 2.20521 25.7738 2.43742 26.0336 2.72744L27.2957 4.22461L27.4423 4.39849L27.6293 4.26897C28.1128 3.93396 28.6929 3.76708 29.2805 3.79397C29.8682 3.82086 30.4307 4.04004 30.8815 4.41781C31.3324 4.79558 31.6467 5.31101 31.7761 5.88483C31.9042 6.45286 31.844 7.04698 31.605 7.57759L31.3953 7.90097L27.8521 11.957L27.7418 12.0833L27.8168 12.2333C27.9379 12.4755 27.9866 12.7474 27.9569 13.0166L27.9324 13.2389L28.1507 13.2879C36.64 15.1919 42.9807 22.7739 42.9659 31.8386V31.839C42.9659 39.7739 36.5258 46.2125 28.5909 46.2125H19.3359C11.4009 46.2125 4.96088 39.7724 4.96088 31.8375C4.96088 22.7739 11.3018 15.1919 19.7911 13.2879L19.8692 13.2704L19.9226 13.2108L20.3741 12.7068ZM21.5183 9.89106L21.5931 9.97747H21.7074H26.1609H26.2745L26.3492 9.89191L28.8812 6.99241L28.5906 6.59987C28.0585 6.83852 27.4637 6.89888 26.8946 6.77195C26.3258 6.64509 25.8132 6.33796 25.4331 5.89629C25.4329 5.89602 25.4327 5.89575 25.4324 5.89547L24.1019 4.31922L23.902 4.08242L23.7129 4.32786L22.5166 5.87997C22.1276 6.33506 21.5992 6.64897 21.0133 6.77283C20.4255 6.8971 19.8131 6.82305 19.2719 6.56226L18.9743 6.95106L21.5183 9.89106ZM7.46088 31.8375V31.8376C7.4621 34.9866 8.71359 38.0063 10.9403 40.233C13.167 42.4598 16.1867 43.7113 19.3358 43.7125H19.3359H28.5909H28.591C31.74 43.7113 34.7597 42.4598 36.9865 40.233C39.2132 38.0063 40.4647 34.9866 40.4659 31.8376V31.8375V31.8349C40.4811 22.7174 33.0908 15.3275 23.9709 15.3275C14.8508 15.3275 7.46088 22.7174 7.46088 31.8375Z" fill="url(#paint1_linear_31_98)" stroke="#100F17" stroke-width="0.5"/>
<defs>
<linearGradient id="paint0_linear_31_98" x1="23.9709" y1="20.2574" x2="23.9709" y2="39.9224" gradientUnits="userSpaceOnUse">
<stop stop-color="#BAB3FD"/>
<stop offset="1" stop-color="#703AB4"/>
</linearGradient>
<linearGradient id="paint1_linear_31_98" x1="23.9634" y1="1.55243" x2="23.9634" y2="46.4625" gradientUnits="userSpaceOnUse">
<stop stop-color="#BAB3FD"/>
<stop offset="1" stop-color="#703AB4"/>
</linearGradient>
</defs>
</svg>
