<svg width="52" height="48" viewBox="0 0 52 48" fill="none" xmlns="http://www.w3.org/2000/svg">
<path fill-rule="evenodd" clip-rule="evenodd" d="M25.8384 6C21.0229 6 16.636 7.492 14.0401 8.711C13.8056 8.821 13.5867 8.92833 13.3834 9.033C12.9804 9.239 12.6371 9.431 12.3642 9.6L15.3173 13.678L16.7074 14.197C22.1402 16.768 29.4258 16.768 34.8596 14.197L36.4375 13.429L39.2295 9.6C38.6505 9.24711 38.0492 8.92752 37.4289 8.643C34.8458 7.437 30.5633 6 25.8395 6M18.9718 10.616C17.9263 10.4314 16.8936 10.1883 15.8791 9.888C18.3108 8.875 21.9345 7.8 25.8395 7.8C28.5442 7.8 31.1017 8.316 33.2168 8.97C30.7382 9.297 28.0932 9.852 25.573 10.535C23.5901 11.073 21.2724 11.015 18.9718 10.616ZM35.9865 15.68L35.7242 15.804C29.7478 18.632 21.8204 18.632 15.8439 15.804L15.5955 15.686C6.6159 24.927 -0.239021 41.997 25.8384 41.997C51.9159 41.997 44.8947 24.61 35.9865 15.68ZM24.7308 24C24.1653 24 23.623 24.2107 23.2231 24.5858C22.8233 24.9609 22.5986 25.4696 22.5986 26C22.5986 26.5304 22.8233 27.0391 23.2231 27.4142C23.623 27.7893 24.1653 28 24.7308 28V24ZM26.863 22V21H24.7308V22C23.5998 22 22.5152 22.4214 21.7154 23.1716C20.9157 23.9217 20.4665 24.9391 20.4665 26C20.4665 27.0609 20.9157 28.0783 21.7154 28.8284C22.5152 29.5786 23.5998 30 24.7308 30V34C23.8033 34 23.0133 33.445 22.7191 32.667C22.6754 32.5397 22.605 32.4219 22.512 32.3206C22.419 32.2193 22.3052 32.1365 22.1775 32.0772C22.0497 32.0178 21.9106 31.9831 21.7683 31.9751C21.626 31.967 21.4835 31.9858 21.3491 32.0304C21.2147 32.0749 21.0912 32.1443 20.9858 32.2344C20.8805 32.3245 20.7955 32.4335 20.7359 32.5549C20.6763 32.6764 20.6432 32.8078 20.6387 32.9415C20.6342 33.0751 20.6582 33.2082 20.7095 33.333C21.0035 34.1131 21.548 34.7884 22.2682 35.2661C22.9884 35.7437 23.8488 36.0001 24.7308 36V37H26.863V36C27.9939 36 29.0786 35.5786 29.8783 34.8284C30.678 34.0783 31.1273 33.0609 31.1273 32C31.1273 30.9391 30.678 29.9217 29.8783 29.1716C29.0786 28.4214 27.9939 28 26.863 28V24C27.7904 24 28.5804 24.555 28.8747 25.333C28.9183 25.4603 28.9887 25.5781 29.0818 25.6794C29.1748 25.7807 29.2885 25.8635 29.4163 25.9228C29.544 25.9822 29.6831 26.0169 29.8254 26.0249C29.9677 26.033 30.1103 26.0142 30.2447 25.9696C30.3791 25.9251 30.5026 25.8557 30.6079 25.7656C30.7132 25.6755 30.7982 25.5665 30.8578 25.4451C30.9175 25.3236 30.9505 25.1922 30.9551 25.0585C30.9596 24.9249 30.9355 24.7918 30.8842 24.667C30.5903 23.8869 30.0457 23.2116 29.3255 22.7339C28.6053 22.2563 27.745 21.9999 26.863 22ZM26.863 30V34C27.4284 34 27.9708 33.7893 28.3706 33.4142C28.7705 33.0391 28.9951 32.5304 28.9951 32C28.9951 31.4696 28.7705 30.9609 28.3706 30.5858C27.9708 30.2107 27.4284 30 26.863 30Z" fill="url(#paint0_linear_31_98)"/>
<defs>
<linearGradient id="paint0_linear_31_98" x1="25.7988" y1="6" x2="25.7988" y2="41.997" gradientUnits="userSpaceOnUse">
<stop stop-color="#BCB7FF"/>
<stop offset="1" stop-color="#703AB4"/>
</linearGradient>
</defs>
</svg>
