<svg width="52" height="48" viewBox="0 0 52 48" fill="none" xmlns="http://www.w3.org/2000/svg">
<path fill-rule="evenodd" clip-rule="evenodd" d="M3.03354 33C3.03402 30.2727 3.9854 27.6204 5.74259 25.4476C7.49978 23.2747 9.96636 21.7005 12.7662 20.9651C15.566 20.2297 18.5454 20.3734 21.2501 21.3743C23.9547 22.3751 26.2362 24.1783 27.7466 26.5087C29.2569 28.8392 29.9133 31.569 29.6156 34.282C29.3179 36.9949 28.0824 39.5421 26.0976 41.5351C24.1128 43.5281 21.4876 44.8575 18.6223 45.3206C15.757 45.7837 12.8089 45.355 10.2275 44.1L5.51112 44.924C5.25607 44.9683 4.99336 44.9538 4.74566 44.8816C4.49795 44.8094 4.27267 44.6818 4.08926 44.5098C3.90585 44.3377 3.7698 44.1264 3.69286 43.894C3.61592 43.6617 3.60039 43.4153 3.64761 43.176L4.52606 38.752C3.54077 36.9758 3.02867 35.0023 3.03354 33Z" fill="url(#paint0_linear_31_90)"/>
<path fill-rule="evenodd" clip-rule="evenodd" d="M48.8751 20C48.8751 17.7019 48.3926 15.4262 47.455 13.303C46.5174 11.1798 45.1432 9.25066 43.4108 7.62563C41.6784 6.00061 39.6217 4.71157 37.3582 3.83211C35.0947 2.95265 32.6687 2.5 30.2187 2.5C21.1228 2.5 12.9524 9 11.7498 17.518L11.7456 17.526L11.7328 17.652L11.6901 18.128C14.5389 17.3394 17.5617 17.2857 20.4403 17.9725C23.3189 18.6592 25.947 20.0611 28.0479 22.0306C30.1489 24.0001 31.645 26.4644 32.379 29.1641C33.1129 31.8639 33.0576 34.6993 32.2186 37.372C32.4892 37.3522 32.7593 37.3275 33.0289 37.298L33.1291 37.286L33.1589 37.284L33.1674 37.282H33.1717L33.208 37.276C35.2411 36.9682 37.2054 36.345 39.0202 35.432L46.131 36.674C46.3861 36.7183 46.6488 36.7037 46.8965 36.6315C47.1442 36.5594 47.3695 36.4318 47.5529 36.2597C47.7363 36.0877 47.8723 35.8764 47.9493 35.644C48.0262 35.4117 48.0418 35.1652 47.9945 34.926L46.6726 28.256C48.124 25.7174 48.8808 22.8806 48.8751 20Z" fill="url(#paint1_linear_31_90)"/>
<defs>
<linearGradient id="paint0_linear_31_90" x1="16.3596" y1="20.5021" x2="16.3596" y2="45.5021" gradientUnits="userSpaceOnUse">
<stop stop-color="#BCB7FF"/>
<stop offset="1" stop-color="#703AB4"/>
</linearGradient>
<linearGradient id="paint1_linear_31_90" x1="30.2826" y1="2.5" x2="30.2826" y2="37.372" gradientUnits="userSpaceOnUse">
<stop stop-color="#BCB7FF"/>
<stop offset="1" stop-color="#703AB4"/>
</linearGradient>
</defs>
</svg>
