<svg width="49" height="48" viewBox="0 0 49 48" fill="none" xmlns="http://www.w3.org/2000/svg">
<path d="M42.2212 36.6109L42.0889 36.7289L42.1564 36.8928C43.104 39.1926 44.4957 41.283 46.252 43.0445L46.2523 43.0447L46.6183 43.4107V46.25H45.3684C40.9215 46.2498 36.6237 44.6467 33.2631 41.7346L32.2744 40.8776L32.1944 40.8082L32.0888 40.8175C31.5174 40.8678 30.9411 40.893 30.3683 40.893C26.068 40.893 22.0205 39.5072 18.9683 37.0002C15.8331 34.4246 14.1183 30.987 14.1183 27.3215C14.1183 23.6559 15.8331 20.2184 18.9683 17.643C22.0205 15.1359 26.068 13.75 30.3683 13.75C34.6687 13.75 38.7162 15.1359 41.7689 17.6428C44.9041 20.2184 46.6188 23.6559 46.6188 27.3215C46.6188 30.7698 45.0351 34.1031 42.2212 36.6109ZM34.9004 39.8452L34.9005 39.8452C37.1237 41.7718 39.8354 43.0475 42.7372 43.5319L43.3851 43.6401L42.973 43.1285C41.4569 41.2465 40.27 39.1217 39.4625 36.8439L39.1244 35.887L39.8444 35.3346L39.7053 35.1534L39.8444 35.3346C42.5891 33.2283 44.1183 30.3837 44.1183 27.3215C44.1183 21.1676 37.8957 16.25 30.3683 16.25C22.841 16.25 16.6183 21.1677 16.6183 27.3215C16.6183 33.4752 22.841 38.3928 30.3683 38.3928C31.0639 38.3928 31.7588 38.3505 32.4492 38.266L32.4493 38.266L33.0005 38.1984L34.9004 39.8452Z" fill="url(#paint0_linear_31_90)" stroke="#12101A" stroke-width="0.5"/>
<path d="M5.81452 29.6084L5.40468 30.1272L6.05524 30.0094C7.66797 29.7173 9.22164 29.1653 10.6559 28.3758C10.716 29.2537 10.8532 30.1247 11.0662 30.9788C8.66809 32.1437 6.03612 32.7497 3.36835 32.75C3.36834 32.75 3.36833 32.75 3.36832 32.75H2.11835V29.9644L2.48451 29.5983L2.48479 29.598C4.13462 27.9433 5.44476 25.9818 6.3414 23.8241L6.40937 23.6605L6.27756 23.5421C3.61541 21.1517 2.11835 17.9832 2.11835 14.7053C2.11835 11.2044 3.75512 7.92153 6.74865 5.4625C9.65917 3.07176 13.5179 1.75 17.6183 1.75C21.7188 1.75 25.5775 3.07177 28.4878 5.46249L28.4879 5.4625C30.1842 6.85577 31.4433 8.51363 32.2169 10.3238C31.6052 10.2746 30.989 10.25 30.3683 10.25C30.0412 10.25 29.7156 10.2576 29.3916 10.2714C27.3062 6.70109 22.7989 4.25 17.6183 4.25C10.5047 4.25 4.61835 8.89095 4.61835 14.7053C4.61835 17.5953 6.06308 20.2799 8.6542 22.2682C8.65421 22.2682 8.65421 22.2682 8.65422 22.2682L9.37351 22.8202L9.0383 23.7715C8.29077 25.8806 7.20166 27.8525 5.81452 29.6084Z" fill="url(#paint1_linear_31_90)" stroke="#12111B" stroke-width="0.5"/>
<defs>
<linearGradient id="paint0_linear_31_90" x1="30.3686" y1="13.5" x2="30.3686" y2="46.5" gradientUnits="userSpaceOnUse">
<stop stop-color="#BAB3FD"/>
<stop offset="1" stop-color="#703AB4"/>
</linearGradient>
<linearGradient id="paint1_linear_31_90" x1="17.2356" y1="1.5" x2="17.2356" y2="33" gradientUnits="userSpaceOnUse">
<stop stop-color="#BAB3FD"/>
<stop offset="1" stop-color="#703AB4"/>
</linearGradient>
</defs>
</svg>
