<svg width="27" height="27" viewBox="0 0 27 27" fill="none" xmlns="http://www.w3.org/2000/svg">
<g clip-path="url(#clip0_46_140)">
<path d="M24 4.5H3C2.60218 4.5 2.22064 4.65804 1.93934 4.93934C1.65804 5.22064 1.5 5.60218 1.5 6V21C1.5 21.3978 1.65804 21.7794 1.93934 22.0607C2.22064 22.342 2.60218 22.5 3 22.5H24C24.3978 22.5 24.7794 22.342 25.0607 22.0607C25.342 21.7794 25.5 21.3978 25.5 21V6C25.5 5.60218 25.342 5.22064 25.0607 4.93934C24.7794 4.65804 24.3978 4.5 24 4.5ZM22.845 21H4.245L9.495 15.57L8.415 14.5275L3 20.13V7.14L12.3225 16.4175C12.6035 16.6969 12.9837 16.8537 13.38 16.8537C13.7763 16.8537 14.1565 16.6969 14.4375 16.4175L24 6.9075V20.0325L18.48 14.5125L17.4225 15.57L22.845 21ZM3.9825 6H22.785L13.38 15.3525L3.9825 6Z" fill="url(#paint0_linear_46_140)"/>
</g>
<defs>
<linearGradient id="paint0_linear_46_140" x1="13.5" y1="4.5" x2="13.5" y2="22.5" gradientUnits="userSpaceOnUse">
<stop stop-color="#BCB7FF"/>
<stop offset="1" stop-color="#703AB4"/>
</linearGradient>
<clipPath id="clip0_46_140">
<rect width="27" height="27" fill="white"/>
</clipPath>
</defs>
</svg>
