<svg width="18" height="16" viewBox="0 0 18 16" fill="none" xmlns="http://www.w3.org/2000/svg">
<g clip-path="url(#clip0_31_43)">
<path d="M8.7101 12.677C8.68514 12.6538 8.66534 12.6262 8.65183 12.5959C8.63833 12.5655 8.63137 12.533 8.63137 12.5001C8.63137 12.4673 8.63833 12.4348 8.65183 12.4044C8.66534 12.3741 8.68514 12.3465 8.7101 12.3233L13.0832 8.25014H1.92133C1.85014 8.25014 1.78187 8.2238 1.73154 8.17692C1.6812 8.13003 1.65292 8.06644 1.65292 8.00014C1.65292 7.93384 1.6812 7.87025 1.73154 7.82336C1.78187 7.77648 1.85014 7.75014 1.92133 7.75014L13.0832 7.75014L8.7101 3.67701C8.68516 3.65379 8.66538 3.62621 8.65188 3.59586C8.63838 3.56551 8.63144 3.53299 8.63144 3.50014C8.63144 3.46729 8.63838 3.43476 8.65188 3.40441C8.66538 3.37407 8.68516 3.34649 8.7101 3.32326C8.73503 3.30004 8.76464 3.28161 8.79722 3.26904C8.82981 3.25647 8.86473 3.25 8.9 3.25C8.93526 3.25 8.97019 3.25647 9.00277 3.26904C9.03535 3.28161 9.06496 3.30004 9.0899 3.32326L13.9213 7.82326C13.9462 7.84648 13.966 7.87405 13.9795 7.9044C13.993 7.93475 14 7.96729 14 8.00014C14 8.03299 13.993 8.06553 13.9795 8.09587C13.966 8.12622 13.9462 8.1538 13.9213 8.17701L9.0899 12.677C9.06497 12.7003 9.03536 12.7187 9.00278 12.7313C8.9702 12.7439 8.93527 12.7503 8.9 12.7503C8.86472 12.7503 8.82979 12.7439 8.79721 12.7313C8.76463 12.7187 8.73502 12.7003 8.7101 12.677Z" fill="#8B81FF" stroke="#8B81FF" stroke-width="0.5"/>
</g>
<defs>
<clipPath id="clip0_31_43">
<rect width="16" height="17.1783" fill="white" transform="matrix(0 1 -1 0 17.1785 0)"/>
</clipPath>
</defs>
</svg>
