<svg width="27" height="27" viewBox="0 0 27 27" fill="none" xmlns="http://www.w3.org/2000/svg">
<path d="M13.5 3.375C7.3125 3.375 2.25 7.425 2.25 12.375C2.25 14.7375 3.375 16.9875 5.4 18.5625C5.4 19.2375 4.95 21.0375 2.25 23.625C2.25 23.625 6.1875 23.625 9.5625 20.8125C10.8 21.15 12.15 21.375 13.5 21.375C19.6875 21.375 24.75 17.325 24.75 12.375C24.75 7.425 19.6875 3.375 13.5 3.375ZM14.625 16.875H12.375V14.625H14.625V16.875ZM16.65 11.25C16.3125 11.7 15.8625 11.925 15.4125 12.15C15.075 12.375 14.9625 12.4875 14.85 12.7125C14.625 12.9375 14.625 13.1625 14.625 13.5H12.375C12.375 12.9375 12.4875 12.6 12.7125 12.2625C12.9375 12.0375 13.3875 11.7 13.95 11.3625C14.2875 11.25 14.5125 11.025 14.625 10.8C14.7375 10.575 14.85 10.2375 14.85 10.0125C14.85 9.675 14.7375 9.45 14.5125 9.225C14.2875 9 13.95 8.8875 13.6125 8.8875C13.275 8.8875 13.05 9 12.825 9.1125C12.6 9.225 12.4875 9.45 12.4875 9.7875H10.2375C10.35 9 10.6875 8.325 11.25 7.875C11.8125 7.425 12.6 7.3125 13.6125 7.3125C14.625 7.3125 15.525 7.5375 16.0875 7.9875C16.65 8.4375 16.9875 9.1125 16.9875 9.9C17.1 10.35 16.9875 10.8 16.65 11.25Z" fill="url(#paint0_linear_46_134)"/>
<defs>
<linearGradient id="paint0_linear_46_134" x1="13.5" y1="3.375" x2="13.5" y2="23.625" gradientUnits="userSpaceOnUse">
<stop stop-color="#BCB7FF"/>
<stop offset="1" stop-color="#703AB4"/>
</linearGradient>
</defs>
</svg>
