<svg width="27" height="27" viewBox="0 0 27 27" fill="none" xmlns="http://www.w3.org/2000/svg">
<path d="M23.6693 10.9898C23.258 10.5606 22.8329 10.1176 22.6621 9.70523C22.5039 9.32238 22.4954 8.75602 22.4859 8.15695C22.4712 7.16766 22.4543 6.04758 21.7034 5.29664C20.9524 4.5457 19.8281 4.52883 18.843 4.51406C18.244 4.50457 17.6829 4.49613 17.2948 4.33793C16.8824 4.16707 16.4394 3.74203 16.0102 3.3307C15.3098 2.65992 14.5167 1.89844 13.5 1.89844C12.4833 1.89844 11.6902 2.65992 10.9898 3.3307C10.5606 3.74203 10.1176 4.16707 9.70523 4.33793C9.32238 4.49613 8.75602 4.50457 8.15695 4.51406C7.16766 4.52883 6.04758 4.5457 5.29664 5.29664C4.5457 6.04758 4.52883 7.17187 4.51406 8.15695C4.50457 8.75602 4.49613 9.31711 4.33793 9.70523C4.16707 10.1176 3.74203 10.5606 3.3307 10.9898C2.65992 11.6902 1.89844 12.4833 1.89844 13.5C1.89844 14.5167 2.65992 15.3098 3.3307 16.0102C3.74203 16.4394 4.16707 16.8824 4.33793 17.2948C4.49613 17.6776 4.50457 18.244 4.51406 18.843C4.52883 19.8323 4.5457 20.9524 5.29664 21.7034C6.04758 22.4543 7.17187 22.4712 8.15695 22.4859C8.75602 22.4954 9.31711 22.5039 9.70523 22.6621C10.1176 22.8329 10.5606 23.258 10.9898 23.6693C11.6902 24.3401 12.4833 25.1016 13.5 25.1016C14.5167 25.1016 15.3098 24.3401 16.0102 23.6693C16.4394 23.258 16.8824 22.8329 17.2948 22.6621C17.6776 22.5039 18.244 22.4954 18.843 22.4859C19.8323 22.4712 20.9524 22.4543 21.7034 21.7034C22.4543 20.9524 22.4712 19.8323 22.4859 18.843C22.4954 18.244 22.5039 17.6829 22.6621 17.2948C22.8329 16.8824 23.258 16.4394 23.6693 16.0102C24.3401 15.3098 25.1016 14.5167 25.1016 13.5C25.1016 12.4833 24.3401 11.6902 23.6693 10.9898ZM22.7559 15.1348C22.2634 15.6473 21.754 16.1789 21.4903 16.8117C21.2393 17.4171 21.2287 18.1322 21.2182 18.8241C21.2066 19.6087 21.1939 20.4209 20.8069 20.809C20.4198 21.1971 19.6066 21.2087 18.822 21.2203C18.1301 21.2309 17.415 21.2414 16.8096 21.4924C16.1768 21.754 15.6495 22.2634 15.1316 22.758C14.5779 23.2854 14.0052 23.838 13.4979 23.838C12.9906 23.838 12.4179 23.2886 11.8631 22.758C11.3505 22.2655 10.819 21.7561 10.1862 21.4924C9.58078 21.2414 8.8657 21.2309 8.17383 21.2203C7.38914 21.2087 6.57703 21.1961 6.18891 20.809C5.80078 20.4219 5.78918 19.6087 5.77758 18.8241C5.76703 18.1322 5.75648 17.4171 5.50547 16.8117C5.24391 16.1789 4.73449 15.6516 4.23984 15.1337C3.71355 14.58 3.16406 14.0073 3.16406 13.5C3.16406 12.9927 3.71355 12.42 4.24406 11.8652C4.7366 11.3527 5.24602 10.8211 5.50969 10.1883C5.7607 9.58289 5.77125 8.86781 5.7818 8.17594C5.7934 7.39125 5.80605 6.57914 6.19313 6.19102C6.5802 5.80289 7.39336 5.79129 8.17805 5.77969C8.86992 5.76914 9.585 5.75859 10.1904 5.50758C10.8232 5.24602 11.3505 4.7366 11.8684 4.24195C12.42 3.71355 12.9927 3.16406 13.5 3.16406C14.0073 3.16406 14.58 3.71355 15.1348 4.24406C15.6473 4.7366 16.1789 5.24602 16.8117 5.50969C17.4171 5.7607 18.1322 5.77125 18.8241 5.7818C19.6087 5.7934 20.4209 5.80605 20.809 6.19313C21.1971 6.5802 21.2087 7.39336 21.2203 8.17805C21.2309 8.86992 21.2414 9.585 21.4924 10.1904C21.754 10.8232 22.2634 11.3505 22.758 11.8684C23.2854 12.4221 23.838 12.9948 23.838 13.5021C23.838 14.0094 23.2864 14.58 22.7559 15.1348ZM14.5547 18.9844C14.5547 19.193 14.4928 19.3969 14.3769 19.5703C14.2611 19.7438 14.0963 19.879 13.9036 19.9588C13.7109 20.0386 13.4988 20.0595 13.2942 20.0188C13.0897 19.9781 12.9017 19.8777 12.7542 19.7302C12.6067 19.5827 12.5063 19.3947 12.4656 19.1901C12.4249 18.9855 12.4458 18.7735 12.5256 18.5808C12.6054 18.388 12.7406 18.2233 12.914 18.1074C13.0875 17.9915 13.2914 17.9297 13.5 17.9297C13.7797 17.9297 14.048 18.0408 14.2458 18.2386C14.4436 18.4364 14.5547 18.7047 14.5547 18.9844ZM17.5078 11.3906C17.5078 13.1752 16.0429 14.6602 14.1328 14.9323V15.1875C14.1328 15.3553 14.0661 15.5163 13.9475 15.635C13.8288 15.7536 13.6678 15.8203 13.5 15.8203C13.3322 15.8203 13.1712 15.7536 13.0525 15.635C12.9339 15.5163 12.8672 15.3553 12.8672 15.1875V14.3438C12.8672 14.1759 12.9339 14.015 13.0525 13.8963C13.1712 13.7776 13.3322 13.7109 13.5 13.7109C15.0124 13.7109 16.2422 12.67 16.2422 11.3906C16.2422 10.1113 15.0124 9.07031 13.5 9.07031C11.9876 9.07031 10.7578 10.1113 10.7578 11.3906V11.8125C10.7578 11.9803 10.6911 12.1413 10.5725 12.26C10.4538 12.3786 10.2928 12.4453 10.125 12.4453C9.95717 12.4453 9.79621 12.3786 9.67753 12.26C9.55886 12.1413 9.49219 11.9803 9.49219 11.8125V11.3906C9.49219 9.41309 11.2852 7.80469 13.5 7.80469C15.7148 7.80469 17.5078 9.41309 17.5078 11.3906Z" fill="url(#paint0_linear_46_10)"/>
<defs>
<linearGradient id="paint0_linear_46_10" x1="13.5" y1="1.89844" x2="13.5" y2="25.1016" gradientUnits="userSpaceOnUse">
<stop stop-color="#BAB3FD"/>
<stop offset="0.525" stop-color="#9373D7"/>
<stop offset="1" stop-color="#703AB4"/>
</linearGradient>
</defs>
</svg>
