<svg width="45" height="45" viewBox="0 0 45 45" fill="none" xmlns="http://www.w3.org/2000/svg">
<path d="M11.25 39.375C10.1925 39.375 9.30313 39.0144 8.58188 38.2931C7.86063 37.5719 7.5 36.6825 7.5 35.625V30.4312H13.125V5.625H37.5V35.625C37.5 36.6825 37.1394 37.5719 36.4181 38.2931C35.6969 39.0144 34.8075 39.375 33.75 39.375H11.25ZM33.75 37.5C34.2812 37.5 34.7269 37.32 35.0869 36.96C35.4469 36.6 35.6262 36.155 35.625 35.625V7.5H15V30.4312H31.875V35.625C31.875 36.1562 32.055 36.6019 32.415 36.9619C32.775 37.3219 33.22 37.5012 33.75 37.5ZM17.5969 15.7219V13.8469H33.0281V15.7219H17.5969ZM17.5969 20.9138V19.0388H33.0281V20.9138H17.5969ZM11.25 37.5H30V32.3062H9.375V35.625C9.375 36.1562 9.555 36.6019 9.915 36.9619C10.275 37.3219 10.72 37.5012 11.25 37.5ZM11.25 37.5H9.375H30H11.25Z" fill="url(#paint0_linear_31_32)"/>
<defs>
<linearGradient id="paint0_linear_31_32" x1="22.5" y1="5.625" x2="22.5" y2="39.375" gradientUnits="userSpaceOnUse">
<stop stop-color="#BAB3FD"/>
<stop offset="1" stop-color="#703AB4"/>
</linearGradient>
</defs>
</svg>
