<svg width="120" height="120" viewBox="0 0 120 120" fill="none" xmlns="http://www.w3.org/2000/svg">
<path fill-rule="evenodd" clip-rule="evenodd" d="M60 17.5C59.337 17.5 58.7011 17.7634 58.2322 18.2322C57.7634 18.7011 57.5 19.337 57.5 20V27.5H55C52.7019 27.5 50.4263 27.9527 48.3031 28.8321C46.1799 29.7116 44.2507 31.0006 42.6256 32.6256C41.0006 34.2507 39.7116 36.1798 38.8321 38.303C37.9527 40.4262 37.5 42.7019 37.5 45C37.5 47.2981 37.9527 49.5738 38.8321 51.697C39.7116 53.8202 41.0006 55.7493 42.6256 57.3744C44.2507 58.9994 46.1799 60.2884 48.3031 61.1679C50.4263 62.0474 52.7019 62.5 55 62.5H57.5V87.5H55C52.4143 87.5011 49.892 86.7003 47.7804 85.208C45.6689 83.7156 44.0721 81.6052 43.21 79.1675C43.1076 78.8493 42.9425 78.5548 42.7243 78.3016C42.5062 78.0483 42.2394 77.8413 41.9399 77.693C41.6404 77.5446 41.3141 77.4578 40.9805 77.4377C40.6468 77.4176 40.3125 77.4646 39.9973 77.5759C39.6821 77.6873 39.3925 77.8607 39.1455 78.086C38.8985 78.3112 38.6992 78.5837 38.5594 78.8873C38.4195 79.191 38.342 79.5196 38.3314 79.8537C38.3208 80.1878 38.3773 80.5206 38.4975 80.8325C39.7039 84.2451 41.9387 87.1997 44.8942 89.2893C47.8497 91.3789 51.3804 92.5006 55 92.5H57.5V100C57.5 100.663 57.7634 101.299 58.2322 101.768C58.7011 102.237 59.337 102.5 60 102.5C60.6631 102.5 61.2989 102.237 61.7678 101.768C62.2366 101.299 62.5 100.663 62.5 100V92.5H65C69.6413 92.5 74.0925 90.6563 77.3744 87.3744C80.6563 84.0925 82.5 79.6413 82.5 75C82.5 70.3587 80.6563 65.9075 77.3744 62.6256C74.0925 59.3437 69.6413 57.5 65 57.5H62.5V32.5H65C67.5857 32.4989 70.108 33.2997 72.2196 34.792C74.3311 36.2844 75.928 38.3948 76.79 40.8325C76.8924 41.1507 77.0575 41.4452 77.2757 41.6984C77.4938 41.9517 77.7606 42.1587 78.0601 42.307C78.3596 42.4554 78.6859 42.5422 79.0196 42.5623C79.3532 42.5824 79.6875 42.5354 80.0027 42.4241C80.3179 42.3127 80.6076 42.1393 80.8545 41.914C81.1015 41.6888 81.3008 41.4163 81.4406 41.1127C81.5805 40.809 81.658 40.4804 81.6686 40.1463C81.6793 39.8122 81.6228 39.4794 81.5025 39.1675C80.2962 35.7549 78.0613 32.8003 75.1058 30.7107C72.1503 28.6211 68.6196 27.4994 65 27.5H62.5V20C62.5 19.337 62.2366 18.7011 61.7678 18.2322C61.2989 17.7634 60.6631 17.5 60 17.5ZM52.5 20C52.5 18.0109 53.2902 16.1032 54.6967 14.6967C56.1032 13.2902 58.0109 12.5 60 12.5C61.9891 12.5 63.8968 13.2902 65.3033 14.6967C66.7098 16.1032 67.5 18.0109 67.5 20V22.6375C71.7001 23.1093 75.6826 24.7533 78.9926 27.3815C82.3025 30.0097 84.8062 33.5161 86.2175 37.5C86.5458 38.4286 86.688 39.4128 86.636 40.3964C86.5839 41.3799 86.3386 42.3436 85.9142 43.2324C85.4897 44.1211 84.8943 44.9176 84.162 45.5763C83.4297 46.235 82.5749 46.7429 81.6463 47.0713C80.7177 47.3996 79.7335 47.5417 78.7499 47.4897C77.7663 47.4376 76.8027 47.1924 75.9139 46.7679C75.0251 46.3434 74.2287 45.748 73.57 45.0158C72.9113 44.2835 72.4033 43.4286 72.075 42.5C71.7023 41.4443 71.0979 40.4855 70.3062 39.6938C69.5146 38.9021 68.5557 38.2978 67.5 37.925V52.6375C72.9997 53.2539 78.0793 55.8752 81.7682 60.0006C85.457 64.1259 87.4963 69.4659 87.4963 75C87.4963 80.5341 85.457 85.8741 81.7682 89.9994C78.0793 94.1248 72.9997 96.7461 67.5 97.3625V100C67.5 101.989 66.7098 103.897 65.3033 105.303C63.8968 106.71 61.9891 107.5 60 107.5C58.0109 107.5 56.1032 106.71 54.6967 105.303C53.2902 103.897 52.5 101.989 52.5 100V97.3625C48.3 96.8907 44.3174 95.2467 41.0075 92.6185C37.6975 89.9903 35.1938 86.4839 33.7825 82.5C33.4542 81.5714 33.312 80.5872 33.3641 79.6036C33.4161 78.6201 33.6614 77.6564 34.0859 76.7676C34.9431 74.9727 36.4783 73.5918 38.3538 72.9287C40.2292 72.2657 42.2912 72.3748 44.0861 73.2321C45.8811 74.0894 47.262 75.6246 47.925 77.5C48.2978 78.5557 48.9021 79.5145 49.6938 80.3062C50.4855 81.0979 51.4443 81.7022 52.5 82.075V67.3625C47.0004 66.7461 41.9207 64.1248 38.2319 59.9994C34.543 55.8741 32.5037 50.5341 32.5037 45C32.5037 39.4659 34.543 34.1259 38.2319 30.0006C41.9207 25.8752 47.0004 23.2539 52.5 22.6375V20ZM42.5 45C42.5 41.6848 43.817 38.5054 46.1612 36.1612C48.5054 33.817 51.6848 32.5 55 32.5H57.5V57.5H55C51.6848 57.5 48.5054 56.183 46.1612 53.8388C43.817 51.4946 42.5 48.3152 42.5 45ZM52.5 37.925C51.0362 38.4415 49.7686 39.3993 48.872 40.6665C47.9754 41.9337 47.4939 43.4477 47.4939 45C47.4939 46.5523 47.9754 48.0663 48.872 49.3335C49.7686 50.6007 51.0362 51.5585 52.5 52.075V37.925ZM62.5 62.5H65C68.3152 62.5 71.4946 63.817 73.8388 66.1612C76.1831 68.5054 77.5 71.6848 77.5 75C77.5 78.3152 76.1831 81.4946 73.8388 83.8388C71.4946 86.183 68.3152 87.5 65 87.5H62.5V62.5ZM67.5 67.925V82.075C68.9638 81.5585 70.2314 80.6007 71.128 79.3335C72.0246 78.0664 72.5061 76.5523 72.5061 75C72.5061 73.4477 72.0246 71.9337 71.128 70.6665C70.2314 69.3993 68.9638 68.4415 67.5 67.925Z" fill="white" fill-opacity="0.07"/>
</svg>
