<svg width="59" height="59" viewBox="0 0 59 59" fill="none" xmlns="http://www.w3.org/2000/svg">
<path d="M47.9375 40.5625C44.5118 40.5625 41.6503 42.9225 40.8243 46.0938H18.1757C17.8444 44.8266 17.1816 43.6706 16.2555 42.7445C15.3294 41.8184 14.1734 41.1556 12.9062 40.8243V35.0312C12.9062 32.9994 14.5601 31.3438 16.5938 31.3438H42.4062C46.4736 31.3438 49.7812 28.0361 49.7812 23.9688V18.1757C52.9525 17.3515 55.3125 14.4882 55.3125 11.0625C55.3125 6.99519 52.0048 3.6875 47.9375 3.6875C43.8702 3.6875 40.5625 6.99519 40.5625 11.0625C40.5625 14.4882 42.9225 17.3497 46.0938 18.1757V23.9688C46.0938 26.0024 44.4399 27.6562 42.4062 27.6562H16.5938C12.5264 27.6562 9.21875 30.9639 9.21875 35.0312V40.8243C6.0475 41.6485 3.6875 44.5118 3.6875 47.9375C3.6875 52.0048 6.99519 55.3125 11.0625 55.3125C14.4882 55.3125 17.3497 52.9525 18.1757 49.7812H40.8243C41.6485 52.9525 44.5118 55.3125 47.9375 55.3125C52.0048 55.3125 55.3125 52.0048 55.3125 47.9375C55.3125 43.8702 52.0048 40.5625 47.9375 40.5625ZM44.25 11.0625C44.25 9.03069 45.9038 7.375 47.9375 7.375C49.9712 7.375 51.625 9.03069 51.625 11.0625C51.625 13.0943 49.9712 14.75 47.9375 14.75C45.9038 14.75 44.25 13.0962 44.25 11.0625ZM11.0625 51.625C9.02884 51.625 7.375 49.9712 7.375 47.9375C7.375 45.9038 9.02884 44.25 11.0625 44.25C13.0962 44.25 14.75 45.9057 14.75 47.9375C14.75 49.9693 13.0962 51.625 11.0625 51.625ZM47.9375 51.625C45.9038 51.625 44.25 49.9712 44.25 47.9375C44.25 45.9038 45.9038 44.25 47.9375 44.25C49.9712 44.25 51.625 45.9057 51.625 47.9375C51.625 49.9693 49.9712 51.625 47.9375 51.625Z" fill="white" fill-opacity="0.07"/>
<path d="M11.0625 18.4375C12.4269 18.4375 13.688 18.0411 14.785 17.3921L21.3617 23.9688L23.9688 21.3617L17.3921 14.785C18.0696 13.661 18.4308 12.3749 18.4375 11.0625C18.4375 6.99519 15.1298 3.6875 11.0625 3.6875C6.99519 3.6875 3.6875 6.99519 3.6875 11.0625C3.6875 15.1298 6.99519 18.4375 11.0625 18.4375ZM11.0625 7.375C13.0962 7.375 14.75 9.03069 14.75 11.0625C14.75 13.0943 13.0962 14.75 11.0625 14.75C9.02884 14.75 7.375 13.0962 7.375 11.0625C7.375 9.02884 9.02884 7.375 11.0625 7.375Z" fill="white" fill-opacity="0.07"/>
</svg>
