<svg width="27" height="27" viewBox="0 0 27 27" fill="none" xmlns="http://www.w3.org/2000/svg">
<g clip-path="url(#clip0_46_140)">
<path d="M24.0469 3.54376C23.7568 3.35607 23.425 3.24253 23.0807 3.21311C22.7365 3.18368 22.3902 3.23928 22.0725 3.37501L11.6606 7.47563C11.4144 7.57679 11.1506 7.6284 10.8844 7.6275H4.21875C3.65931 7.6275 3.12278 7.84974 2.7272 8.24533C2.33161 8.64091 2.10938 9.17744 2.10938 9.73688V9.90563H0V14.9681H2.10938V15.1875C2.12259 15.7381 2.35065 16.2617 2.74481 16.6464C3.13897 17.0311 3.66797 17.2464 4.21875 17.2463L6.75 22.6125C6.9214 22.9739 7.19125 23.2796 7.52855 23.4945C7.86585 23.7094 8.25693 23.8248 8.65688 23.8275H9.72C10.2765 23.8231 10.8087 23.5989 11.2007 23.2037C11.5926 22.8086 11.8125 22.2747 11.8125 21.7181V17.4488L22.0725 21.5494C22.3252 21.6486 22.5941 21.7001 22.8656 21.7013C23.2869 21.6935 23.6969 21.5646 24.0469 21.33C24.3244 21.1426 24.5534 20.8918 24.7148 20.5984C24.8762 20.3049 24.9654 19.9773 24.975 19.6425V5.28188C24.9735 4.9385 24.8881 4.60069 24.7264 4.29779C24.5646 3.99488 24.3314 3.73605 24.0469 3.54376ZM9.70312 9.73688V15.1875H4.21875V9.73688H9.70312ZM9.70312 21.7181H8.64L6.56438 17.2463H9.70312V21.7181ZM12.4369 15.4406C12.2365 15.3383 12.0276 15.2536 11.8125 15.1875V9.61875C12.0255 9.57448 12.2343 9.51239 12.4369 9.43313L22.8656 5.28188V19.5919L12.4369 15.4406ZM25.0256 10.3275V14.5463C25.5851 14.5463 26.1216 14.324 26.5172 13.9284C26.9128 13.5328 27.135 12.9963 27.135 12.4369C27.135 11.8774 26.9128 11.3409 26.5172 10.9453C26.1216 10.5497 25.5851 10.3275 25.0256 10.3275Z" fill="url(#paint0_linear_46_140)"/>
</g>
<defs>
<linearGradient id="paint0_linear_46_140" x1="13.5675" y1="3.20544" x2="13.5675" y2="23.8275" gradientUnits="userSpaceOnUse">
<stop stop-color="#BCB7FF"/>
<stop offset="1" stop-color="#703AB4"/>
</linearGradient>
<clipPath id="clip0_46_140">
<rect width="27" height="27" fill="white"/>
</clipPath>
</defs>
</svg>
