<svg width="59" height="59" viewBox="0 0 59 59" fill="none" xmlns="http://www.w3.org/2000/svg">
<path d="M43.6478 34.4167C45.1139 34.418 46.5196 35.0013 47.5558 36.0385C48.5921 37.0756 49.1741 38.4818 49.1741 39.9479V41.3615C49.1741 43.5592 48.3875 45.6857 46.9616 47.3549C43.1021 51.861 37.234 54.0858 29.5001 54.0858C21.7662 54.0858 15.9006 51.861 12.0508 47.35C10.6265 45.6816 9.84377 43.56 9.84326 41.3664V39.9455C9.84391 38.4793 10.4266 37.0734 11.4633 36.0367C12.5 35 13.9059 34.4173 15.3721 34.4167H43.6478ZM43.6478 38.1042H15.3696C14.8806 38.1042 14.4116 38.2984 14.0659 38.6442C13.7201 38.99 13.5258 39.4589 13.5258 39.9479V41.3664C13.5258 42.6816 13.9978 43.955 14.8533 44.9555C17.9336 48.5668 22.7692 50.3983 29.4976 50.3983C36.231 50.3983 41.0666 48.5668 44.1567 44.958C45.0138 43.9557 45.4846 42.6802 45.4842 41.3615V39.9455C45.4835 39.4577 45.2897 38.9901 44.945 38.645C44.6004 38.2999 44.1355 38.1055 43.6478 38.1042ZM29.5001 4.92896C31.1143 4.92896 32.7126 5.24689 34.2039 5.8646C35.6952 6.48232 37.0502 7.38771 38.1916 8.5291C39.333 9.67049 40.2384 11.0255 40.8561 12.5168C41.4738 14.0081 41.7918 15.6065 41.7918 17.2206C41.7918 18.8348 41.4738 20.4331 40.8561 21.9244C40.2384 23.4157 39.333 24.7708 38.1916 25.9121C37.0502 27.0535 35.6952 27.9589 34.2039 28.5766C32.7126 29.1944 31.1143 29.5123 29.5001 29.5123C26.2401 29.5123 23.1137 28.2173 20.8086 25.9121C18.5034 23.607 17.2084 20.4806 17.2084 17.2206C17.2084 13.9607 18.5034 10.8342 20.8086 8.5291C23.1137 6.22397 26.2401 4.92896 29.5001 4.92896ZM29.5001 8.61646C28.3702 8.61645 27.2513 8.83901 26.2074 9.27141C25.1635 9.70381 24.215 10.3376 23.416 11.1366C22.6171 11.9355 21.9833 12.884 21.5509 13.9279C21.1185 14.9719 20.8959 16.0907 20.8959 17.2206C20.8959 18.3505 21.1185 19.4694 21.5509 20.5133C21.9833 21.5572 22.6171 22.5057 23.416 23.3047C24.215 24.1037 25.1635 24.7374 26.2074 25.1698C27.2513 25.6022 28.3702 25.8248 29.5001 25.8248C31.7821 25.8248 33.9706 24.9183 35.5842 23.3047C37.1978 21.6911 38.1043 19.5026 38.1043 17.2206C38.1043 14.9387 37.1978 12.7502 35.5842 11.1366C33.9706 9.52296 31.7821 8.61646 29.5001 8.61646Z" fill="white" fill-opacity="0.07"/>
</svg>
