<svg width="59" height="59" viewBox="0 0 59 59" fill="none" xmlns="http://www.w3.org/2000/svg">
<path d="M7.99233 45.0318L27.3759 56.0447C28.8088 56.8602 30.1416 56.8844 31.6239 56.0447L51.0075 45.0318C53.3043 43.7232 54.5634 42.3894 54.5634 38.8094V19.2519C54.5634 16.5116 53.4771 14.9554 51.4521 13.7944L33.9945 3.86872C30.957 2.11557 27.9933 2.14086 25.0054 3.86872L7.54772 13.7955C5.52276 14.9554 4.43652 16.5116 4.43652 19.253V38.8094C4.43652 42.3894 5.69554 43.7232 7.99233 45.0318ZM41.1061 20.8576L22.2155 10.1901L26.7596 7.59731C28.635 6.53531 30.3143 6.51107 32.2413 7.59731L48.3157 16.7834L41.1061 20.8576ZM29.4999 27.4245L10.6831 16.7834L18.0666 12.5607L36.8834 23.2523L29.4999 27.4245ZM10.3144 41.575C8.90577 40.7848 8.43693 40.0189 8.43693 38.6861V20.2644L27.4255 31.1056V51.3037L10.3144 41.575ZM48.6865 41.575L31.5744 51.3037V31.1046L50.5629 20.2644V38.6871C50.5629 40.0199 50.0941 40.7859 48.6865 41.576" fill="white" fill-opacity="0.07"/>
</svg>
