<svg width="48" height="48" viewBox="0 0 48 48" fill="none" xmlns="http://www.w3.org/2000/svg">
<path d="M3.99997 21.92C3.76778 21.7923 3.56373 21.6191 3.40003 21.4108C3.23633 21.2024 3.11635 20.9632 3.04727 20.7074C2.97818 20.4516 2.96141 20.1844 2.99796 19.922C3.0345 19.6596 3.12362 19.4072 3.25997 19.18L6.25997 14C6.47997 13.6 6.81997 13.32 7.19997 13.16L22.86 4.36C23.18 4.12 23.58 4 24 4C24.42 4 24.82 4.12 25.14 4.36L40.94 13.24C41.32 13.44 41.64 13.76 41.82 14.16L44.72 19.2C45.28 20.16 44.94 21.38 44 21.92L42 23.08V33C42 33.76 41.58 34.42 40.94 34.76L25.14 43.64C24.82 43.88 24.42 44 24 44C23.58 44 23.18 43.88 22.86 43.64L7.05997 34.76C6.73919 34.5917 6.47073 34.3386 6.28383 34.0282C6.09692 33.7179 5.99874 33.3623 5.99997 33V21.92C5.39997 22.26 4.63997 22.28 3.99997 21.92ZM24 8.3V21.7L35.92 15L24 8.3ZM9.99997 31.82L22 38.58V25.16L9.99997 18.42V31.82ZM38 31.82V25.38L28 31.18C27.34 31.54 26.6 31.52 26 31.2V38.58L38 31.82ZM27.7 26.72L40.26 19.46L39.1 17.44L26.54 24.7L27.7 26.72Z" fill="url(#paint0_linear_31_60)"/>
<defs>
<linearGradient id="paint0_linear_31_60" x1="23.9851" y1="4" x2="23.9851" y2="44" gradientUnits="userSpaceOnUse">
<stop stop-color="#BCB7FF"/>
<stop offset="1" stop-color="#703AB4"/>
</linearGradient>
</defs>
</svg>
