<svg width="48" height="48" viewBox="0 0 48 48" fill="none" xmlns="http://www.w3.org/2000/svg">
<path d="M8 17.1429L24 8L37.696 15.8263C38.396 16.2261 38.9778 16.804 39.3825 17.5013C39.7871 18.1985 40.0001 18.9904 40 19.7966V30.4891C40.0001 31.2953 39.7871 32.0872 39.3825 32.7844C38.9778 33.4817 38.396 34.0596 37.696 34.4594L26.2674 40.9897C25.5768 41.3842 24.7953 41.5917 24 41.5917C23.2047 41.5917 22.4232 41.3842 21.7326 40.9897L10.304 34.4594C9.60399 34.0596 9.02216 33.4817 8.61753 32.7844C8.2129 32.0872 7.99986 31.2953 8 30.4891V24.0846" stroke="url(#paint0_linear_112_38)" stroke-width="2.28571" stroke-linecap="round" stroke-linejoin="round"/>
<path d="M21.833 25.1199C22.499 25.4784 23.2435 25.6661 23.9999 25.6661C24.7562 25.6661 25.5007 25.4784 26.1667 25.1199L38.857 18.2856M23.9999 26.2856V41.1428" stroke="url(#paint1_linear_112_38)" stroke-width="2.28571" stroke-linecap="round" stroke-linejoin="round"/>
<path fill-rule="evenodd" clip-rule="evenodd" d="M7.99972 17.1428L23.9997 26.2856L17.1426 28.5713L1.14258 19.4285L7.99972 17.1428ZM23.9997 7.9999L39.9997 17.1428L44.5712 12.5713L28.5712 3.42847L23.9997 7.9999Z" stroke="url(#paint2_linear_112_38)" stroke-width="2.28571" stroke-linecap="round" stroke-linejoin="round"/>
<defs>
<linearGradient id="paint0_linear_112_38" x1="24" y1="8" x2="24" y2="41.5917" gradientUnits="userSpaceOnUse">
<stop stop-color="#BCB7FF"/>
<stop offset="1" stop-color="#703AB4"/>
</linearGradient>
<linearGradient id="paint1_linear_112_38" x1="30.345" y1="18.2856" x2="30.345" y2="41.1428" gradientUnits="userSpaceOnUse">
<stop stop-color="#BCB7FF"/>
<stop offset="1" stop-color="#703AB4"/>
</linearGradient>
<linearGradient id="paint2_linear_112_38" x1="22.8569" y1="3.42847" x2="22.8569" y2="28.5713" gradientUnits="userSpaceOnUse">
<stop stop-color="#BCB7FF"/>
<stop offset="1" stop-color="#703AB4"/>
</linearGradient>
</defs>
</svg>
