<svg width="44" height="44" viewBox="0 0 44 44" fill="none" xmlns="http://www.w3.org/2000/svg">
<path d="M19.723 27.852C20.2913 28.4215 21.021 28.6806 21.912 28.6293C22.803 28.5792 23.4532 28.259 23.8627 27.6686L33.4932 14.2431L19.998 23.8058C19.3844 24.214 19.0428 24.8484 18.9732 25.7088C18.9035 26.5692 19.1534 27.2824 19.723 27.852ZM22 9.16664C23.6854 9.16664 25.2193 9.37197 26.6017 9.78264C27.9852 10.1921 29.3639 10.8185 30.7377 11.6618L29.051 12.804C27.9718 12.2149 26.8547 11.7669 25.6997 11.4601C24.5447 11.1534 23.3114 11 22 11C17.9361 11 14.4754 12.4287 11.6178 15.2863C8.76028 18.1439 7.33211 21.604 7.33333 25.6666C7.33333 26.95 7.50933 28.218 7.86133 29.4708C8.21333 30.7236 8.70956 31.9 9.35 33H34.65C35.3528 31.8389 35.8649 30.6319 36.1863 29.3791C36.5078 28.1264 36.6679 26.8277 36.6667 25.4833C36.6667 24.3833 36.5249 23.2259 36.2413 22.011C35.9578 20.7961 35.5092 19.6643 34.8957 18.6156L36.0397 16.929C36.9319 18.4592 37.5632 19.899 37.9335 21.2483C38.3038 22.5976 38.4927 24.002 38.5 25.4613C38.5073 27.038 38.3319 28.5095 37.9738 29.876C37.6169 31.2424 37.0608 32.6199 36.3055 34.0083C36.1588 34.2527 35.9358 34.4514 35.6363 34.6041C35.3369 34.7569 35.0081 34.8333 34.65 34.8333H9.35C9.01389 34.8333 8.70222 34.7514 8.415 34.5876C8.129 34.4226 7.88822 34.1825 7.69267 33.8671C7.08644 32.7977 6.56944 31.5914 6.14167 30.2481C5.71389 28.9049 5.5 27.3777 5.5 25.6666C5.5 23.4129 5.92778 21.2856 6.78333 19.2848C7.63767 17.284 8.80428 15.532 10.2832 14.0286C11.7621 12.5253 13.5111 11.3385 15.5302 10.4683C17.5493 9.59808 19.7059 9.16419 22 9.16664Z" fill="url(#paint0_linear_13_69)"/>
<defs>
<linearGradient id="paint0_linear_13_69" x1="22.0001" y1="9.16663" x2="22.0001" y2="34.8333" gradientUnits="userSpaceOnUse">
<stop stop-color="#BAB3FD"/>
<stop offset="1" stop-color="#703AB4"/>
</linearGradient>
</defs>
</svg>
