<svg width="41" height="40" viewBox="0 0 41 40" fill="none" xmlns="http://www.w3.org/2000/svg">
<path d="M25.2805 36.6784H8.61379V33.345H25.2805V36.6784ZM36.9471 6.66671L29.0554 16.5917L28.6888 17.0417L19.3055 29.025C18.9958 29.3347 18.6281 29.5804 18.2234 29.748C17.8188 29.9156 17.3851 30.0019 16.9471 30.0019C16.5091 30.0019 16.0754 29.9156 15.6708 29.748C15.2662 29.5804 14.8985 29.3347 14.5888 29.025C14.2791 28.7153 14.0334 28.3477 13.8658 27.943C13.6982 27.5384 13.6119 27.1047 13.6119 26.6667C13.6119 26.2287 13.6982 25.795 13.8658 25.3904C14.0334 24.9857 14.2791 24.6181 14.5888 24.3084L36.9471 6.66671ZM4.68879 12.0567C2.28088 15.9124 1.41497 20.5342 2.26379 25H3.61379V23.3334C3.59721 20.0519 4.57962 16.8431 6.43045 14.1334L4.68879 12.0567ZM20.2805 3.33337C17.7315 3.33323 15.2107 3.86654 12.8803 4.89902C10.5498 5.93151 8.46119 7.4403 6.74879 9.32837L8.65545 11.6C10.9182 9.51987 13.8736 8.35552 16.9471 8.33337C20.0373 8.35459 23.0079 9.53047 25.2755 11.63L31.1921 6.96004C28.0413 4.6059 24.2136 3.33372 20.2805 3.33337ZM31.6638 18.6667L31.2754 19.145L30.0621 20.695C30.2047 21.5673 30.2777 22.4495 30.2804 23.3334V25H38.2971C39.0879 20.829 38.3901 16.5128 36.3255 12.8034L31.6638 18.6667Z" fill="url(#paint0_linear_13_69)"/>
<defs>
<linearGradient id="paint0_linear_13_69" x1="20.2802" y1="3.33337" x2="20.2802" y2="36.6784" gradientUnits="userSpaceOnUse">
<stop stop-color="#BCB7FF"/>
<stop offset="1" stop-color="#703AB4"/>
</linearGradient>
</defs>
</svg>
