<svg width="52" height="48" viewBox="0 0 52 48" fill="none" xmlns="http://www.w3.org/2000/svg">
<path fill-rule="evenodd" clip-rule="evenodd" d="M34.0499 15.9024C34.3438 16.0553 34.6027 16.2611 34.8118 16.5079C35.0208 16.7548 35.176 17.0378 35.2684 17.341C35.3609 17.6441 35.3887 17.9613 35.3504 18.2745C35.3121 18.5877 35.2084 18.8908 35.0452 19.1664L27.9374 31.1664C27.7741 31.4418 27.5546 31.6844 27.2913 31.8803C27.0281 32.0762 26.7263 32.2215 26.4032 32.308C25.7506 32.4826 25.0508 32.4069 24.4577 32.0976C24.164 31.9444 23.9054 31.7385 23.6966 31.4915C23.4878 31.2446 23.3329 30.9615 23.2407 30.6584C23.0545 30.0463 23.1352 29.3899 23.465 28.8336L30.5702 16.8336C30.7335 16.5581 30.953 16.3155 31.2163 16.1196C31.4795 15.9237 31.7813 15.7784 32.1044 15.6919C32.4276 15.6055 32.7657 15.5795 33.0995 15.6157C33.4333 15.6518 33.7562 15.7492 34.0499 15.9024Z" fill="url(#paint0_linear_31_73)"/>
<path fill-rule="evenodd" clip-rule="evenodd" d="M16.5977 23.1672C17.0216 22.6706 17.6384 22.3522 18.3125 22.282C18.9866 22.2118 19.6628 22.3955 20.1925 22.7928L27.3003 28.1256C27.5627 28.3225 27.7812 28.5661 27.9433 28.8423C28.1054 29.1185 28.2079 29.4219 28.2449 29.7352C28.282 30.0486 28.2529 30.3657 28.1593 30.6685C28.0657 30.9713 27.9095 31.2538 27.6995 31.5C27.4895 31.7461 27.2298 31.9511 26.9354 32.1031C26.6409 32.2551 26.3175 32.3513 25.9834 32.386C25.6494 32.4208 25.3113 32.3935 24.9885 32.3057C24.6657 32.2179 24.3645 32.0713 24.1021 31.8744L16.9943 26.5416C16.7318 26.3446 16.5132 26.1011 16.3511 25.8249C16.1889 25.5487 16.0864 25.2453 16.0493 24.9319C16.0123 24.6186 16.0414 24.3014 16.135 23.9986C16.2287 23.6958 16.3876 23.4133 16.5977 23.1672Z" fill="url(#paint1_linear_31_73)"/>
<path fill-rule="evenodd" clip-rule="evenodd" d="M27.4717 8.86078C27.1561 8.56503 26.7281 8.39891 26.282 8.39891C25.8358 8.39891 25.4079 8.56503 25.0922 8.86078C22.7716 11.0352 19.0565 12.3744 15.7892 12.2208C15.5535 12.2078 15.3175 12.2419 15.097 12.321C14.8764 12.4 14.6763 12.5221 14.5099 12.6792C14.349 12.8289 14.2224 13.0079 14.1379 13.2052C14.0534 13.4025 14.0128 13.6139 14.0186 13.8264C14.0544 15.5544 13.5913 17.28 12.9824 18.6984C12.3734 20.1192 11.4319 21.6624 10.1295 22.8864C9.81425 23.1825 9.63715 23.5839 9.63715 24.0024C9.63715 24.4209 9.81425 24.8223 10.1295 25.1184C12.4144 27.264 13.9521 30.6408 14.0186 33.6768C14.0255 34.0839 14.2018 34.4723 14.5099 34.7592C14.8033 35.0379 15.198 35.2024 15.6152 35.22C17.419 35.304 19.2126 35.8032 20.7145 36.4272C22.2189 37.0536 23.8155 37.9656 25.0897 39.1632C25.4053 39.4589 25.8333 39.6251 26.2794 39.6251C26.7256 39.6251 27.1535 39.4589 27.4692 39.1632C28.7459 37.9656 30.3425 37.0536 31.8444 36.4272C33.3488 35.8032 35.145 35.304 36.9437 35.22C37.3608 35.2024 37.7556 35.0379 38.049 34.7592C38.358 34.4727 38.5352 34.0842 38.5428 33.6768C38.6093 30.6408 40.147 27.264 42.4319 25.1184C42.7472 24.8223 42.9243 24.4209 42.9243 24.0024C42.9243 23.5839 42.7472 23.1825 42.4319 22.8864C41.127 21.6624 40.188 20.1192 39.579 18.6984C38.9701 17.28 38.5044 15.5544 38.5428 13.8264C38.5482 13.6137 38.5072 13.4022 38.4223 13.2049C38.3374 13.0076 38.2104 12.8287 38.049 12.6792C37.8831 12.522 37.6835 12.3996 37.4634 12.3202C37.2433 12.2407 37.0077 12.206 36.7723 12.2184C33.5024 12.3744 29.7873 11.0352 27.4717 8.86078ZM8.90397 13.92C8.94235 15.7416 7.88565 18.204 6.51168 19.4904C5.87978 20.0828 5.37851 20.7862 5.03651 21.5604C4.69451 22.3346 4.51848 23.1644 4.51848 24.0024C4.51848 24.8404 4.69451 25.6702 5.03651 26.4444C5.37851 27.2186 5.87978 27.922 6.51168 28.5144C7.86774 29.7816 8.86559 31.98 8.90397 33.7752C8.93979 35.364 9.60247 36.9432 10.8946 38.1528C12.0864 39.2737 13.6812 39.9369 15.367 40.0128C17.3909 40.1088 20.0416 41.2128 21.4744 42.5568C22.1059 43.1492 22.8556 43.619 23.6807 43.9396C24.5058 44.2602 25.3902 44.4252 26.2833 44.4252C27.1764 44.4252 28.0607 44.2602 28.8858 43.9396C29.7109 43.619 30.4606 43.1492 31.0922 42.5568C32.525 41.2128 35.1757 40.1088 37.1995 40.0128C38.8853 39.9369 40.4802 39.2737 41.672 38.1528C42.9138 36.99 43.6264 35.4208 43.66 33.7752C43.7009 31.98 44.6988 29.7816 46.0523 28.512C46.6838 27.9196 47.1848 27.2164 47.5265 26.4424C47.8683 25.6684 48.0442 24.8389 48.0442 24.0012C48.0442 23.1634 47.8683 22.3339 47.5265 21.56C47.1848 20.786 46.6838 20.0827 46.0523 19.4904C44.6809 18.204 43.6216 15.7416 43.6626 13.9224C43.6818 13.0635 43.5154 12.2098 43.1733 11.4129C42.8311 10.6159 42.3204 9.89228 41.672 9.28558C40.9998 8.65364 40.1934 8.16145 39.3052 7.841C38.4169 7.52055 37.4668 7.37901 36.5164 7.42558C34.6896 7.51198 32.3843 6.68158 31.0922 5.46718C30.4606 4.87445 29.7107 4.40425 28.8854 4.08345C28.06 3.76265 27.1754 3.59753 26.282 3.59753C25.3886 3.59753 24.5039 3.76265 23.6786 4.08345C22.8533 4.40425 22.1034 4.87445 21.4718 5.46718C20.1823 6.67918 17.8744 7.51198 16.0476 7.42558C15.0976 7.37935 14.1479 7.52106 13.2602 7.8415C12.3724 8.16194 11.5664 8.65395 10.8946 9.28558C10.2464 9.892 9.73589 10.6153 9.39378 11.4117C9.05167 12.2082 8.88505 13.0615 8.90397 13.92Z" fill="url(#paint2_linear_31_73)"/>
<defs>
<linearGradient id="paint0_linear_31_73" x1="29.2548" y1="15.5999" x2="29.2548" y2="32.4001" gradientUnits="userSpaceOnUse">
<stop stop-color="#BCB7FF"/>
<stop offset="1" stop-color="#703AB4"/>
</linearGradient>
<linearGradient id="paint1_linear_31_73" x1="22.1471" y1="22.2673" x2="22.1471" y2="32.4007" gradientUnits="userSpaceOnUse">
<stop stop-color="#BCB7FF"/>
<stop offset="1" stop-color="#703AB4"/>
</linearGradient>
<linearGradient id="paint2_linear_31_73" x1="26.2813" y1="3.59753" x2="26.2813" y2="44.4252" gradientUnits="userSpaceOnUse">
<stop stop-color="#BCB7FF"/>
<stop offset="1" stop-color="#703AB4"/>
</linearGradient>
</defs>
</svg>
