<svg width="51" height="50" viewBox="0 0 51 50" fill="none" xmlns="http://www.w3.org/2000/svg">
<path fill-rule="evenodd" clip-rule="evenodd" d="M31.4282 16.41C31.5717 16.4898 31.698 16.597 31.8 16.7256C31.9021 16.8542 31.9778 17.0017 32.0228 17.1596C32.0678 17.3174 32.0813 17.4826 32.0625 17.6457C32.0437 17.8088 31.993 17.9665 31.9132 18.11L24.9707 30.61C24.8909 30.7535 24.7837 30.8798 24.655 30.9818C24.5264 31.0839 24.379 31.1595 24.2211 31.2046C24.0633 31.2496 23.8981 31.2631 23.735 31.2443C23.5719 31.2255 23.4142 31.1748 23.2707 31.095C23.1272 31.0152 23.0009 30.908 22.8988 30.7794C22.7968 30.6508 22.7211 30.5033 22.6761 30.3454C22.6311 30.1876 22.6176 30.0224 22.6364 29.8593C22.6552 29.6963 22.7059 29.5385 22.7857 29.395L29.7282 16.895C29.808 16.7515 29.9152 16.6252 30.0438 16.5232C30.1724 16.4211 30.3199 16.3454 30.4777 16.3004C30.6356 16.2554 30.8008 16.2419 30.9639 16.2607C31.1269 16.2795 31.2847 16.3302 31.4282 16.41Z" fill="url(#paint0_linear_31_73)"/>
<path fill-rule="evenodd" clip-rule="evenodd" d="M15.9582 23.665C16.1653 23.4067 16.4663 23.2412 16.7954 23.2046C17.1244 23.1681 17.4545 23.2635 17.7132 23.47L24.6582 29.025C24.9171 29.2322 25.0831 29.5338 25.1197 29.8634C25.1562 30.193 25.0604 30.5236 24.8532 30.7825C24.646 31.0414 24.3444 31.2074 24.0148 31.244C23.6852 31.2806 23.3546 31.1847 23.0957 30.9775L16.1532 25.425C16.0249 25.3224 15.9182 25.1956 15.839 25.0518C15.7597 24.9079 15.7097 24.7499 15.6915 24.5867C15.6734 24.4235 15.6877 24.2583 15.7334 24.1006C15.7792 23.9428 15.8555 23.7957 15.9582 23.6675" fill="url(#paint1_linear_31_73)"/>
<path fill-rule="evenodd" clip-rule="evenodd" d="M11.1782 10.1925C10.7828 10.5865 10.4714 11.0566 10.263 11.5744C10.0546 12.0922 9.95346 12.6469 9.96569 13.205C9.99069 14.58 9.64069 16.035 9.13319 17.295C8.62569 18.5575 7.86819 19.85 6.89819 20.8225C6.5132 21.2074 6.20781 21.6644 5.99945 22.1673C5.79109 22.6703 5.68385 23.2093 5.68385 23.7537C5.68385 24.2981 5.79109 24.8372 5.99945 25.3401C6.20781 25.8431 6.5132 26.3001 6.89819 26.685C8.67319 28.4625 9.91319 31.3675 9.96569 33.8825C9.98543 34.9315 10.4032 35.9337 11.1343 36.6862C11.8654 37.4386 12.8552 37.8851 13.9032 37.935C15.2782 38.0025 16.7257 38.42 17.9957 38.985C19.2632 39.5475 20.5432 40.34 21.5157 41.3125C21.9006 41.6975 22.3576 42.0029 22.8605 42.2112C23.3635 42.4196 23.9025 42.5268 24.4469 42.5268C24.9913 42.5268 25.5304 42.4196 26.0333 42.2112C26.5363 42.0029 26.9933 41.6975 27.3782 41.3125C28.3507 40.34 29.6282 39.5475 30.8982 38.9825C32.1682 38.42 33.6157 38.0025 34.9907 37.935C36.0389 37.8856 37.029 37.4394 37.7602 36.6868C38.4915 35.9342 38.909 34.9316 38.9282 33.8825C38.9782 31.3675 40.2182 28.4625 41.9957 26.6825C42.7724 25.9052 43.2088 24.8513 43.2088 23.7525C43.2088 22.6536 42.7724 21.5997 41.9957 20.8225C41.0232 19.85 40.2682 18.5575 39.7607 17.2975C39.2507 16.035 38.9007 14.5775 38.9282 13.205C38.9401 12.6468 38.8385 12.0919 38.6297 11.5741C38.4208 11.0563 38.109 10.5863 37.7132 10.1925C37.3041 9.78157 36.8131 9.46144 36.2721 9.25296C35.7311 9.04448 35.1522 8.95232 34.5732 8.98248C32.0832 9.10748 29.1407 7.97749 27.3782 6.21499C26.9933 5.83 26.5363 5.52461 26.0333 5.31625C25.5304 5.10789 24.9913 5.00065 24.4469 5.00065C23.9025 5.00065 23.3635 5.10789 22.8605 5.31625C22.3576 5.52461 21.9006 5.83 21.5157 6.21499C19.7532 7.97749 16.8107 9.10748 14.3207 8.98248C13.7413 8.95196 13.1619 9.04395 12.6204 9.25244C12.079 9.46093 11.5875 9.78125 11.1782 10.1925ZM7.46569 13.25C7.50319 15.145 6.47069 17.7125 5.12819 19.0525C4.51113 19.6695 4.02166 20.4021 3.68771 21.2083C3.35377 22.0145 3.18188 22.8786 3.18188 23.7512C3.18188 24.6239 3.35377 25.488 3.68771 26.2942C4.02166 27.1004 4.51113 27.8329 5.12819 28.45C6.45319 29.7725 7.42819 32.0625 7.46569 33.93C7.50069 35.585 8.14819 37.23 9.41069 38.4925C10.5752 39.6601 12.1335 40.351 13.7807 40.43C15.7582 40.53 18.3482 41.6775 19.7482 43.08C20.3652 43.697 21.0978 44.1865 21.904 44.5205C22.7102 44.8544 23.5743 45.0263 24.4469 45.0263C25.3196 45.0263 26.1837 44.8544 26.9899 44.5205C27.7961 44.1865 28.5286 43.697 29.1457 43.08C30.5457 41.6775 33.1357 40.53 35.1132 40.43C36.7603 40.351 38.3187 39.6601 39.4832 38.4925C40.6971 37.2806 41.3935 35.645 41.4257 33.93C41.4657 32.0625 42.4407 29.7725 43.7632 28.45C44.3802 27.8329 44.8697 27.1004 45.2037 26.2942C45.5376 25.488 45.7095 24.6239 45.7095 23.7512C45.7095 22.8786 45.5376 22.0145 45.2037 21.2083C44.8697 20.4021 44.3802 19.6695 43.7632 19.0525C42.4232 17.7125 41.3882 15.145 41.4282 13.2525C41.4474 12.3574 41.2849 11.4676 40.9506 10.637C40.6163 9.80646 40.1171 9.05226 39.4832 8.41999C38.8264 7.76171 38.0385 7.24901 37.1706 6.91521C36.3027 6.58141 35.3743 6.43397 34.4457 6.48249C32.6607 6.57249 30.4082 5.70749 29.1457 4.44249C28.5286 3.82506 27.7959 3.33527 26.9895 3.0011C26.183 2.66693 25.3186 2.49493 24.4457 2.49493C23.5727 2.49493 22.7084 2.66693 21.9019 3.0011C21.0955 3.33527 20.3628 3.82506 19.7457 4.44249C18.4857 5.70749 16.2307 6.57249 14.4457 6.48249C13.5175 6.43433 12.5896 6.58194 11.7221 6.91573C10.8547 7.24952 10.0672 7.76204 9.41069 8.41999C8.77707 9.05196 8.27807 9.80576 7.94378 10.6359C7.60949 11.466 7.44686 12.3553 7.46569 13.25Z" fill="url(#paint2_linear_31_73)"/>
<defs>
<linearGradient id="paint0_linear_31_73" x1="27.3494" y1="16.2524" x2="27.3494" y2="31.2525" gradientUnits="userSpaceOnUse">
<stop stop-color="#BAB3FD"/>
<stop offset="0.415" stop-color="#9B81DF"/>
<stop offset="1" stop-color="#703AB4"/>
</linearGradient>
<linearGradient id="paint1_linear_31_73" x1="20.4056" y1="23.197" x2="20.4056" y2="31.2516" gradientUnits="userSpaceOnUse">
<stop stop-color="#BAB3FD"/>
<stop offset="0.415" stop-color="#9B81DF"/>
<stop offset="1" stop-color="#703AB4"/>
</linearGradient>
<linearGradient id="paint2_linear_31_73" x1="24.4457" y1="2.49493" x2="24.4457" y2="45.0263" gradientUnits="userSpaceOnUse">
<stop stop-color="#BAB3FD"/>
<stop offset="0.415" stop-color="#9B81DF"/>
<stop offset="1" stop-color="#703AB4"/>
</linearGradient>
</defs>
</svg>
