<svg width="40" height="40" viewBox="0 0 40 40" fill="none" xmlns="http://www.w3.org/2000/svg">
<g clip-path="url(#clip0_13_91)">
<path d="M35.3025 4.69751C33.896 3.29147 31.9887 2.50161 30 2.50161C28.0113 2.50161 26.104 3.29147 24.6975 4.69751L21.8325 7.56501L32.485 18.215L35.3025 15.3025C36.7085 13.896 37.4984 11.9887 37.4984 10C37.4984 8.01128 36.7085 6.10396 35.3025 4.69751ZM30.7325 20L20.0675 9.33501L9.34501 20.0775L20 30.7325L30.7325 20ZM18.2175 32.485L7.57501 21.8425L4.69751 24.7C3.36476 26.1206 2.63697 28.0039 2.66814 29.9515C2.69931 31.8992 3.48699 33.7583 4.86451 35.1355C6.24203 36.5127 8.10131 37.2999 10.0489 37.3306C11.9966 37.3613 13.8798 36.6331 15.3 35.3L15.315 35.285L18.215 32.4825L18.2175 32.485ZM6.69751 19.19L22.9275 2.93001C24.8087 1.08808 27.3404 0.0623602 29.9732 0.075441C32.606 0.0885217 35.1274 1.13935 36.9902 2.99988C38.8531 4.8604 39.907 7.3805 39.9233 10.0133C39.9397 12.646 38.9171 15.179 37.0775 17.0625L33.385 20.885L20.87 33.4L17.0625 37.08C15.179 38.9196 12.646 39.9422 10.0133 39.9259C7.3805 39.9095 4.8604 38.8556 2.99988 36.9927C1.13935 35.1299 0.0885217 32.6085 0.075441 29.9757C0.0623602 27.3429 1.08808 24.8112 2.93001 22.93L2.93251 22.925L6.69501 19.195L6.69751 19.19Z" fill="url(#paint0_linear_13_91)"/>
<path d="M13.9 19.115C14.0196 19.2301 14.115 19.3679 14.1807 19.5203C14.2464 19.6727 14.2811 19.8367 14.2828 20.0027C14.2845 20.1686 14.2531 20.3333 14.1904 20.487C14.1278 20.6407 14.0352 20.7804 13.918 20.8979C13.8008 21.0154 13.6614 21.1084 13.5078 21.1715C13.3543 21.2346 13.1898 21.2664 13.0238 21.2652C12.8578 21.264 12.6937 21.2298 12.5412 21.1645C12.3886 21.0992 12.2505 21.0042 12.135 20.885C12.0188 20.7689 11.9266 20.6311 11.8636 20.4794C11.8006 20.3277 11.7682 20.1651 11.7681 20.0009C11.7678 19.6692 11.8994 19.3509 12.1338 19.1162C12.3681 18.8815 12.6862 18.7495 13.0179 18.7493C13.3496 18.7491 13.6653 18.8806 13.9 19.115ZM17.4375 15.58C17.5569 15.6953 17.6521 15.8332 17.7176 15.9857C17.7832 16.1382 17.8176 16.3023 17.8191 16.4682C17.8205 16.6342 17.7889 16.7988 17.726 16.9524C17.6632 17.106 17.5704 17.2456 17.453 17.363C17.3356 17.4803 17.1961 17.5732 17.0425 17.636C16.8888 17.6989 16.7242 17.7305 16.5583 17.729C16.3923 17.7276 16.2283 17.6931 16.0758 17.6276C15.9233 17.5621 15.7853 17.4669 15.67 17.3475C15.4423 17.1117 15.3163 16.796 15.3192 16.4682C15.322 16.1405 15.4535 15.827 15.6852 15.5952C15.917 15.3634 16.2305 15.232 16.5583 15.2291C16.886 15.2263 17.2018 15.3523 17.4375 15.58ZM20.975 12.045C21.0911 12.1612 21.1831 12.2991 21.2458 12.4509C21.3086 12.6027 21.3408 12.7654 21.3407 12.9296C21.3406 13.0939 21.3081 13.2565 21.2452 13.4082C21.1822 13.5599 21.09 13.6977 20.9738 13.8137C20.8575 13.9298 20.7196 14.0218 20.5678 14.0846C20.416 14.1473 20.2534 14.1795 20.0891 14.1794C19.9249 14.1793 19.7623 14.1468 19.6106 14.0839C19.4589 14.0209 19.3211 13.9287 19.205 13.8125C18.9773 13.5767 18.8513 13.261 18.8542 12.9332C18.857 12.6055 18.9885 12.292 19.2202 12.0602C19.452 11.8284 19.7655 11.697 20.0933 11.6941C20.421 11.6913 20.7368 11.8173 20.9725 12.045H20.975ZM20.975 26.1875C21.0911 26.3037 21.1831 26.4416 21.2458 26.5934C21.3086 26.7452 21.3408 26.9079 21.3407 27.0721C21.3406 27.2364 21.3081 27.399 21.2452 27.5507C21.1822 27.7024 21.09 27.8402 20.9738 27.9562C20.8575 28.0723 20.7196 28.1643 20.5678 28.2271C20.416 28.2898 20.2534 28.322 20.0891 28.3219C19.9249 28.3218 19.7623 28.2893 19.6106 28.2264C19.4589 28.1634 19.3211 28.0712 19.205 27.955C18.9773 27.7192 18.8513 27.4035 18.8542 27.0757C18.857 26.748 18.9885 26.4345 19.2202 26.2027C19.452 25.9709 19.7655 25.8395 20.0933 25.8366C20.421 25.8338 20.7368 25.9598 20.9725 26.1875H20.975ZM24.5075 22.65C24.7422 22.8844 24.8742 23.2024 24.8745 23.5341C24.8747 23.8658 24.7431 24.184 24.5088 24.4187C24.2744 24.6534 23.9564 24.7854 23.6246 24.7857C23.2929 24.7859 22.9747 24.6544 22.74 24.42C22.5123 24.1842 22.3863 23.8685 22.3892 23.5407C22.392 23.213 22.5235 22.8995 22.7552 22.6677C22.987 22.4359 23.3005 22.3045 23.6283 22.3016C23.956 22.2988 24.2718 22.4223 24.5075 22.65ZM28.0425 19.115C28.1621 19.2301 28.2575 19.3679 28.3232 19.5203C28.3889 19.6727 28.4236 19.8367 28.4253 20.0027C28.427 20.1686 28.3956 20.3333 28.3329 20.487C28.2703 20.6407 28.1777 20.7804 28.0605 20.8979C27.9433 21.0154 27.8039 21.1084 27.6503 21.1715C27.4968 21.2346 27.3323 21.2664 27.1663 21.2652C27.0003 21.264 26.8362 21.2298 26.6837 21.1645C26.5311 21.0992 26.393 21.0042 26.2775 20.885C26.1613 20.7689 26.0691 20.6311 26.0061 20.4794C25.9431 20.3277 25.9107 20.1651 25.9106 20.0009C25.9103 19.6692 26.0419 19.3509 26.2763 19.1162C26.5106 18.8815 26.8287 18.7495 27.1604 18.7493C27.4921 18.7491 27.8103 18.8806 28.045 19.115H28.0425ZM17.4375 22.65C17.5537 22.766 17.646 22.9038 17.7089 23.0555C17.7719 23.2072 17.8043 23.3699 17.8045 23.5341C17.8046 23.6983 17.7723 23.861 17.7096 24.0128C17.6468 24.1646 17.5548 24.3025 17.4388 24.4187C17.3227 24.535 17.1849 24.6272 17.0332 24.6901C16.8815 24.7531 16.7189 24.7856 16.5546 24.7857C16.3904 24.7858 16.2277 24.7536 16.076 24.6908C15.9242 24.6281 15.7862 24.536 15.67 24.42C15.4423 24.1842 15.3163 23.8685 15.3192 23.5407C15.322 23.213 15.4535 22.8995 15.6852 22.6677C15.917 22.4359 16.2305 22.3045 16.5583 22.3016C16.886 22.2988 17.2018 22.4223 17.4375 22.65ZM20.975 19.115C21.0912 19.2312 21.1834 19.3692 21.2463 19.521C21.3092 19.6729 21.3416 19.8356 21.3416 20C21.3416 20.1643 21.3092 20.3271 21.2463 20.4789C21.1834 20.6308 21.0912 20.7688 20.975 20.885C20.8588 21.0012 20.7208 21.0934 20.569 21.1563C20.4171 21.2192 20.2544 21.2516 20.09 21.2516C19.9257 21.2516 19.7629 21.2192 19.6111 21.1563C19.4592 21.0934 19.3212 21.0012 19.205 20.885C19.0888 20.7689 18.9966 20.6311 18.9336 20.4794C18.8706 20.3277 18.8382 20.1651 18.8381 20.0009C18.8378 19.6692 18.9694 19.3509 19.2038 19.1162C19.4381 18.8815 19.7562 18.7495 20.0879 18.7493C20.4196 18.7491 20.7378 18.8806 20.9725 19.115H20.975ZM24.5075 15.58C24.6269 15.6953 24.7221 15.8332 24.7876 15.9857C24.8531 16.1382 24.8876 16.3023 24.8891 16.4682C24.8905 16.6342 24.8589 16.7988 24.796 16.9524C24.7332 17.106 24.6404 17.2456 24.523 17.363C24.4056 17.4803 24.2661 17.5732 24.1125 17.636C23.9588 17.6989 23.7942 17.7305 23.6283 17.729C23.4623 17.7276 23.2983 17.6931 23.1458 17.6276C22.9933 17.5621 22.8553 17.4669 22.74 17.3475C22.5123 17.1117 22.3863 16.796 22.3892 16.4682C22.392 16.1405 22.5235 15.827 22.7552 15.5952C22.987 15.3634 23.3005 15.232 23.6283 15.2291C23.956 15.2263 24.2718 15.3523 24.5075 15.58Z" fill="url(#paint1_linear_13_91)"/>
</g>
<defs>
<linearGradient id="paint0_linear_13_91" x1="19.9994" y1="0.0753174" x2="19.9994" y2="39.926" gradientUnits="userSpaceOnUse">
<stop stop-color="#BAB3FD"/>
<stop offset="1" stop-color="#703AB4"/>
</linearGradient>
<linearGradient id="paint1_linear_13_91" x1="20.0967" y1="11.6941" x2="20.0967" y2="28.3219" gradientUnits="userSpaceOnUse">
<stop stop-color="#BAB3FD"/>
<stop offset="1" stop-color="#703AB4"/>
</linearGradient>
<clipPath id="clip0_13_91">
<rect width="40" height="40" fill="white"/>
</clipPath>
</defs>
</svg>
