<svg width="40" height="40" viewBox="0 0 40 40" fill="none" xmlns="http://www.w3.org/2000/svg">
<path d="M12.5 9.33337L16.6667 11.6667L14.3333 7.50004L16.6667 3.33337L12.5 5.66671L8.33334 3.33337L10.6667 7.50004L8.33334 11.6667L12.5 9.33337ZM32.5 25.6667L28.3333 23.3334L30.6667 27.5L28.3333 31.6667L32.5 29.3334L36.6667 31.6667L34.3333 27.5L36.6667 23.3334L32.5 25.6667ZM36.6667 3.33337L32.5 5.66671L28.3333 3.33337L30.6667 7.50004L28.3333 11.6667L32.5 9.33337L36.6667 11.6667L34.3333 7.50004L36.6667 3.33337ZM23.95 12.15C23.7958 11.9955 23.6127 11.873 23.411 11.7893C23.2094 11.7057 22.9933 11.6626 22.775 11.6626C22.5567 11.6626 22.3406 11.7057 22.139 11.7893C21.9373 11.873 21.7542 11.9955 21.6 12.15L2.15 31.6C1.9955 31.7542 1.87292 31.9374 1.78928 32.139C1.70565 32.3406 1.6626 32.5568 1.6626 32.775C1.6626 32.9933 1.70565 33.2095 1.78928 33.4111C1.87292 33.6127 1.9955 33.7958 2.15 33.95L6.05 37.85C6.7 38.5 7.75 38.5 8.4 37.85L27.8333 18.4167C27.9878 18.2625 28.1104 18.0794 28.1941 17.8777C28.2777 17.6761 28.3207 17.46 28.3207 17.2417C28.3207 17.0234 28.2777 16.8073 28.1941 16.6057C28.1104 16.404 27.9878 16.2209 27.8333 16.0667L23.95 12.15ZM22.2333 21.3L18.7 17.7667L22.7667 13.7L26.3 17.2334L22.2333 21.3Z" fill="url(#paint0_linear_13_91)"/>
<defs>
<linearGradient id="paint0_linear_13_91" x1="19.1646" y1="3.33337" x2="19.1646" y2="38.3375" gradientUnits="userSpaceOnUse">
<stop stop-color="#BCB7FF"/>
<stop offset="1" stop-color="#703AB4"/>
</linearGradient>
</defs>
</svg>
