<svg width="16" height="16" viewBox="0 0 16 16" fill="none" xmlns="http://www.w3.org/2000/svg">
<path d="M8.73496 12.765C8.66474 12.6947 8.62529 12.5994 8.62529 12.5C8.62529 12.4006 8.66474 12.3053 8.73496 12.235L12.5943 8.37501H2.49996C2.40051 8.37501 2.30512 8.33551 2.2348 8.26518C2.16447 8.19485 2.12496 8.09947 2.12496 8.00001C2.12496 7.90056 2.16447 7.80518 2.2348 7.73485C2.30512 7.66452 2.40051 7.62501 2.49996 7.62501L12.5943 7.62501L8.73496 3.76501C8.66872 3.69393 8.63266 3.5999 8.63438 3.50275C8.63609 3.4056 8.67545 3.31291 8.74415 3.2442C8.81286 3.1755 8.90555 3.13614 9.0027 3.13443C9.09985 3.13271 9.19388 3.16877 9.26496 3.23501L13.765 7.73501C13.8352 7.80533 13.8746 7.90064 13.8746 8.00001C13.8746 8.09939 13.8352 8.1947 13.765 8.26502L9.26496 12.765C9.19465 12.8352 9.09934 12.8747 8.99996 12.8747C8.90059 12.8747 8.80528 12.8352 8.73496 12.765Z" fill="#8B81FF"/>
</svg>
