<svg width="87" height="87" viewBox="0 0 87 87" fill="none" xmlns="http://www.w3.org/2000/svg">
<g clip-path="url(#clip0_16_119)">
<path d="M32.625 16.3125C34.0671 16.3125 35.4502 16.8854 36.4699 17.9051C37.4896 18.9248 38.0625 20.3079 38.0625 21.75C38.0625 23.1921 37.4896 24.5752 36.4699 25.5949C35.4502 26.6146 34.0671 27.1875 32.625 27.1875C31.1829 27.1875 29.7998 26.6146 28.7801 25.5949C27.7604 24.5752 27.1875 23.1921 27.1875 21.75C27.1875 20.3079 27.7604 18.9248 28.7801 17.9051C29.7998 16.8854 31.1829 16.3125 32.625 16.3125ZM38.0625 43.5C38.0625 42.0579 37.4896 40.6748 36.4699 39.6551C35.4502 38.6354 34.0671 38.0625 32.625 38.0625C31.1829 38.0625 29.7998 38.6354 28.7801 39.6551C27.7604 40.6748 27.1875 42.0579 27.1875 43.5C27.1875 44.9421 27.7604 46.3252 28.7801 47.3449C29.7998 48.3646 31.1829 48.9375 32.625 48.9375C34.0671 48.9375 35.4502 48.3646 36.4699 47.3449C37.4896 46.3252 38.0625 44.9421 38.0625 43.5ZM38.0625 65.25C38.0625 63.8079 37.4896 62.4248 36.4699 61.4051C35.4502 60.3854 34.0671 59.8125 32.625 59.8125C31.1829 59.8125 29.7998 60.3854 28.7801 61.4051C27.7604 62.4248 27.1875 63.8079 27.1875 65.25C27.1875 66.6921 27.7604 68.0752 28.7801 69.0949C29.7998 70.1146 31.1829 70.6875 32.625 70.6875C34.0671 70.6875 35.4502 70.1146 36.4699 69.0949C37.4896 68.0752 38.0625 66.6921 38.0625 65.25ZM59.8125 43.5C59.8125 42.0579 59.2396 40.6748 58.2199 39.6551C57.2002 38.6354 55.8171 38.0625 54.375 38.0625C52.9329 38.0625 51.5498 38.6354 50.5301 39.6551C49.5104 40.6748 48.9375 42.0579 48.9375 43.5C48.9375 44.9421 49.5104 46.3252 50.5301 47.3449C51.5498 48.3646 52.9329 48.9375 54.375 48.9375C55.8171 48.9375 57.2002 48.3646 58.2199 47.3449C59.2396 46.3252 59.8125 44.9421 59.8125 43.5ZM54.375 59.8125C55.8171 59.8125 57.2002 60.3854 58.2199 61.4051C59.2396 62.4248 59.8125 63.8079 59.8125 65.25C59.8125 66.6921 59.2396 68.0752 58.2199 69.0949C57.2002 70.1146 55.8171 70.6875 54.375 70.6875C52.9329 70.6875 51.5498 70.1146 50.5301 69.0949C49.5104 68.0752 48.9375 66.6921 48.9375 65.25C48.9375 63.8079 49.5104 62.4248 50.5301 61.4051C51.5498 60.3854 52.9329 59.8125 54.375 59.8125ZM59.8125 21.75C59.8125 20.3079 59.2396 18.9248 58.2199 17.9051C57.2002 16.8854 55.8171 16.3125 54.375 16.3125C52.9329 16.3125 51.5498 16.8854 50.5301 17.9051C49.5104 18.9248 48.9375 20.3079 48.9375 21.75C48.9375 23.1921 49.5104 24.5752 50.5301 25.5949C51.5498 26.6146 52.9329 27.1875 54.375 27.1875C55.8171 27.1875 57.2002 26.6146 58.2199 25.5949C59.2396 24.5752 59.8125 23.1921 59.8125 21.75Z" fill="white" fill-opacity="0.07"/>
</g>
<defs>
<clipPath id="clip0_16_119">
<rect width="87" height="87" fill="white"/>
</clipPath>
</defs>
</svg>
