<svg width="40" height="40" viewBox="0 0 40 40" fill="none" xmlns="http://www.w3.org/2000/svg">
<path fill-rule="evenodd" clip-rule="evenodd" d="M20 13.75C18.3424 13.75 16.7527 14.4085 15.5806 15.5806C14.4085 16.7527 13.75 18.3424 13.75 20C13.75 21.6576 14.4085 23.2473 15.5806 24.4194C16.7527 25.5915 18.3424 26.25 20 26.25C21.6576 26.25 23.2473 25.5915 24.4194 24.4194C25.5915 23.2473 26.25 21.6576 26.25 20C26.25 18.3424 25.5915 16.7527 24.4194 15.5806C23.2473 14.4085 21.6576 13.75 20 13.75ZM16.25 20C16.25 19.0054 16.6451 18.0516 17.3483 17.3483C18.0516 16.6451 19.0054 16.25 20 16.25C20.9946 16.25 21.9484 16.6451 22.6516 17.3483C23.3549 18.0516 23.75 19.0054 23.75 20C23.75 20.9946 23.3549 21.9484 22.6516 22.6516C21.9484 23.3549 20.9946 23.75 20 23.75C19.0054 23.75 18.0516 23.3549 17.3483 22.6516C16.6451 21.9484 16.25 20.9946 16.25 20Z" fill="url(#paint0_linear_31_30)"/>
<path fill-rule="evenodd" clip-rule="evenodd" d="M19.9583 2.08337C19.2167 2.08337 18.5983 2.08337 18.0917 2.11671C17.5738 2.13827 17.063 2.24527 16.58 2.43337C16.0237 2.66352 15.5183 3.001 15.0925 3.42652C14.6667 3.85204 14.3289 4.35728 14.0983 4.91337C13.8567 5.49671 13.7917 6.11337 13.765 6.78337C13.7623 7.02841 13.6975 7.26875 13.5765 7.48185C13.4555 7.69495 13.2824 7.87383 13.0733 8.00171C12.8581 8.11921 12.6166 8.18009 12.3714 8.17864C12.1262 8.17718 11.8855 8.11343 11.6717 7.99337C11.0783 7.68004 10.5117 7.42837 9.885 7.34504C9.28824 7.26655 8.68187 7.30636 8.10049 7.46221C7.51912 7.61806 6.97414 7.8869 6.49667 8.25337C6.09296 8.57817 5.74553 8.96727 5.46833 9.40504C5.185 9.82837 4.875 10.3634 4.505 11.005L4.46333 11.0784C4.09167 11.72 3.78333 12.255 3.56 12.7117C3.32667 13.1884 3.14333 13.6584 3.07667 14.1784C2.91767 15.3834 3.2438 16.6022 3.98333 17.5667C4.36833 18.0684 4.87 18.4334 5.43667 18.79C5.64793 18.9149 5.82395 19.0915 5.94816 19.3032C6.07236 19.5149 6.14068 19.7547 6.14667 20C6.14068 20.2454 6.07236 20.4852 5.94816 20.6969C5.82395 20.9085 5.64793 21.0851 5.43667 21.21C4.87 21.5667 4.37 21.9317 3.98333 22.4334C3.61686 22.9108 3.34802 23.4558 3.19217 24.0372C3.03632 24.6186 2.99651 25.2249 3.075 25.8217C3.14333 26.3417 3.325 26.8117 3.55833 27.2884C3.78333 27.745 4.09167 28.28 4.46333 28.9217L4.505 28.995C4.875 29.6367 5.185 30.1717 5.46833 30.595C5.76333 31.0334 6.08 31.4284 6.49667 31.745C6.97402 32.1118 7.51894 32.3809 8.10032 32.5371C8.68169 32.6932 9.28813 32.7333 9.885 32.655C10.5117 32.5717 11.0783 32.3217 11.6717 32.0067C11.8852 31.8868 12.1257 31.8231 12.3706 31.8217C12.6155 31.8202 12.8567 31.881 13.0717 31.9984C13.2819 32.1252 13.4561 32.3038 13.5777 32.5171C13.6994 32.7303 13.7644 32.9712 13.7667 33.2167C13.7917 33.8867 13.8567 34.5034 14.1 35.0867C14.3301 35.643 14.6676 36.1484 15.0931 36.5742C15.5187 37 16.0239 37.3379 16.58 37.5684C17.0633 37.7684 17.5633 37.8467 18.0917 37.8817C18.5983 37.9167 19.2167 37.9167 19.9583 37.9167H20.0417C20.7833 37.9167 21.4017 37.9167 21.9083 37.8834C22.4383 37.8467 22.9367 37.7684 23.42 37.5667C23.9762 37.3366 24.4817 36.9991 24.9075 36.5736C25.3333 36.148 25.6711 35.6428 25.9017 35.0867C26.1433 34.5034 26.2083 33.8867 26.235 33.2167C26.2374 32.9714 26.3021 32.7307 26.4231 32.5173C26.5441 32.3039 26.7174 32.1247 26.9267 31.9967C27.142 31.8795 27.3836 31.8189 27.6288 31.8206C27.874 31.8224 28.1147 31.8864 28.3283 32.0067C28.9217 32.32 29.4883 32.5717 30.115 32.6534C31.32 32.8124 32.5388 32.4862 33.5033 31.7467C33.92 31.4267 34.2367 31.0334 34.5317 30.595C34.815 30.1717 35.125 29.6367 35.495 28.995L35.5367 28.9217C35.9083 28.28 36.2167 27.745 36.44 27.2884C36.6733 26.8117 36.8567 26.34 36.9233 25.8217C37.0823 24.6167 36.7562 23.3979 36.0167 22.4334C35.6317 21.9317 35.13 21.5667 34.5633 21.21C34.3521 21.0851 34.176 20.9085 34.0518 20.6969C33.9276 20.4852 33.8593 20.2454 33.8533 20C33.8533 19.5367 34.1067 19.0767 34.5633 18.79C35.13 18.4334 35.63 18.0684 36.0167 17.5667C36.3831 17.0892 36.652 16.5443 36.8078 15.9629C36.9637 15.3815 37.0035 14.7751 36.925 14.1784C36.8457 13.6662 36.6824 13.1707 36.4417 12.7117C36.1571 12.158 35.8553 11.6132 35.5367 11.0784L35.495 11.005C35.1905 10.4619 34.8693 9.92826 34.5317 9.40504C34.2545 8.96774 33.907 8.57918 33.5033 8.25504C33.026 7.88828 32.4811 7.61914 31.8997 7.463C31.3183 7.30686 30.7119 7.26678 30.115 7.34504C29.4883 7.42837 28.9217 7.67837 28.3283 7.99337C28.1148 8.11313 27.8743 8.17672 27.6294 8.17818C27.3845 8.17963 27.1433 8.11891 26.9283 8.00171C26.7187 7.87424 26.5449 7.69553 26.4233 7.4824C26.3017 7.26927 26.2363 7.02872 26.2333 6.78337C26.2083 6.11337 26.1433 5.49671 25.9 4.91337C25.6698 4.35712 25.3324 3.85166 24.9069 3.42585C24.4813 3.00004 23.9761 2.66223 23.42 2.43171C22.9367 2.23171 22.4367 2.15337 21.9083 2.11837C21.4017 2.08337 20.7833 2.08337 20.0417 2.08337H19.9583ZM17.5367 4.74171C17.665 4.68837 17.86 4.64004 18.2617 4.61171C18.6733 4.58337 19.2067 4.58337 20 4.58337C20.7933 4.58337 21.3267 4.58337 21.7383 4.61171C22.14 4.64004 22.335 4.68837 22.4633 4.74171C22.975 4.95337 23.38 5.35837 23.5917 5.87004C23.6583 6.03004 23.7133 6.28171 23.735 6.87671C23.785 8.19671 24.4667 9.46837 25.6767 10.1667C26.8867 10.8667 28.3283 10.82 29.4967 10.2034C30.0233 9.92504 30.2683 9.84671 30.4417 9.82504C30.9893 9.75268 31.5432 9.90076 31.9817 10.2367C32.0917 10.3217 32.2317 10.4667 32.4567 10.8C32.6883 11.1434 32.955 11.605 33.3517 12.2917C33.7483 12.9784 34.0133 13.4417 34.195 13.8117C34.3733 14.1734 34.4283 14.3667 34.445 14.505C34.5174 15.0526 34.3693 15.6066 34.0333 16.045C33.9267 16.1834 33.7367 16.3567 33.2333 16.6734C32.1133 17.3767 31.3533 18.6034 31.3533 20C31.3533 21.3967 32.1133 22.6234 33.2333 23.3267C33.7367 23.6434 33.9267 23.8167 34.0333 23.955C34.37 24.3934 34.5167 24.9467 34.445 25.495C34.4283 25.6334 34.3717 25.8284 34.195 26.1884C34.0133 26.56 33.7483 27.0217 33.3517 27.7084C32.955 28.395 32.6867 28.8567 32.4567 29.2C32.2317 29.5334 32.0917 29.6784 31.9817 29.7634C31.5432 30.0993 30.9893 30.2474 30.4417 30.175C30.2683 30.1534 30.025 30.075 29.4967 29.7967C28.33 29.18 26.8867 29.1334 25.6767 29.8317C24.4667 30.5317 23.785 31.8034 23.735 33.1234C23.7133 33.7184 23.6583 33.97 23.5917 34.13C23.487 34.383 23.3334 34.6129 23.1398 34.8065C22.9462 35.0001 22.7163 35.1537 22.4633 35.2584C22.335 35.3117 22.14 35.36 21.7383 35.3884C21.3267 35.4167 20.7933 35.4167 20 35.4167C19.2067 35.4167 18.6733 35.4167 18.2617 35.3884C17.86 35.36 17.665 35.3117 17.5367 35.2584C17.2837 35.1537 17.0538 35.0001 16.8602 34.8065C16.6666 34.6129 16.513 34.383 16.4083 34.13C16.3417 33.97 16.2867 33.7184 16.265 33.1234C16.215 31.8034 15.5333 30.5317 14.3233 29.8334C13.1133 29.1334 11.6717 29.18 10.5033 29.7967C9.97667 30.075 9.73167 30.1534 9.55833 30.175C9.01073 30.2474 8.45679 30.0993 8.01833 29.7634C7.90833 29.6784 7.76833 29.5334 7.54333 29.2C7.22985 28.7121 6.93138 28.2146 6.64833 27.7084C6.25167 27.0217 5.98667 26.5584 5.805 26.1884C5.62667 25.8267 5.57167 25.6334 5.555 25.495C5.48264 24.9474 5.63072 24.3935 5.96667 23.955C6.07333 23.8167 6.26333 23.6434 6.76667 23.3267C7.88667 22.6234 8.64667 21.3967 8.64667 20C8.64667 18.6034 7.88667 17.3767 6.76667 16.6734C6.26333 16.3567 6.07333 16.1834 5.96667 16.045C5.63072 15.6066 5.48264 15.0526 5.555 14.505C5.57167 14.3667 5.62833 14.1717 5.805 13.8117C5.98667 13.44 6.25167 12.9784 6.64833 12.2917C7.045 11.605 7.31333 11.1434 7.54333 10.8C7.76833 10.4667 7.90833 10.3217 8.01833 10.2367C8.45679 9.90076 9.01073 9.75268 9.55833 9.82504C9.73167 9.84671 9.975 9.92504 10.5033 10.2034C11.67 10.82 13.1133 10.8667 14.3233 10.1667C15.5333 9.46837 16.215 8.19671 16.265 6.87671C16.2867 6.28171 16.3417 6.03004 16.4083 5.87004C16.62 5.35837 17.025 4.95337 17.5367 4.74171Z" fill="url(#paint1_linear_31_30)"/>
<defs>
<linearGradient id="paint0_linear_31_30" x1="20" y1="13.75" x2="20" y2="26.25" gradientUnits="userSpaceOnUse">
<stop stop-color="#BAB3FD"/>
<stop offset="1" stop-color="#703AB4"/>
</linearGradient>
<linearGradient id="paint1_linear_31_30" x1="20" y1="2.08337" x2="20" y2="37.9167" gradientUnits="userSpaceOnUse">
<stop stop-color="#BAB3FD"/>
<stop offset="1" stop-color="#703AB4"/>
</linearGradient>
</defs>
</svg>
