<svg width="40" height="40" viewBox="0 0 40 40" fill="none" xmlns="http://www.w3.org/2000/svg">
<path d="M20 25.8334C18.4529 25.8334 16.9692 25.2188 15.8752 24.1248C14.7813 23.0309 14.1667 21.5471 14.1667 20C14.1667 18.4529 14.7813 16.9692 15.8752 15.8753C16.9692 14.7813 18.4529 14.1667 20 14.1667C21.5471 14.1667 23.0308 14.7813 24.1248 15.8753C25.2188 16.9692 25.8333 18.4529 25.8333 20C25.8333 21.5471 25.2188 23.0309 24.1248 24.1248C23.0308 25.2188 21.5471 25.8334 20 25.8334ZM32.3833 21.6167C32.45 21.0834 32.5 20.55 32.5 20C32.5 19.45 32.45 18.9 32.3833 18.3334L35.9 15.6167C36.2167 15.3667 36.3 14.9167 36.1 14.55L32.7667 8.78338C32.5667 8.41671 32.1167 8.26671 31.75 8.41671L27.6 10.0834C26.7333 9.43338 25.8333 8.86671 24.7833 8.45004L24.1667 4.03338C24.1328 3.83707 24.0306 3.65909 23.878 3.53096C23.7255 3.40284 23.5325 3.33284 23.3333 3.33338H16.6667C16.25 3.33338 15.9 3.63338 15.8333 4.03338L15.2167 8.45004C14.1667 8.86671 13.2667 9.43338 12.4 10.0834L8.25001 8.41671C7.88334 8.26671 7.43334 8.41671 7.23334 8.78338L3.90001 14.55C3.68334 14.9167 3.78334 15.3667 4.10001 15.6167L7.61667 18.3334C7.55001 18.9 7.50001 19.45 7.50001 20C7.50001 20.55 7.55001 21.0834 7.61667 21.6167L4.10001 24.3834C3.78334 24.6334 3.68334 25.0834 3.90001 25.45L7.23334 31.2167C7.43334 31.5834 7.88334 31.7167 8.25001 31.5834L12.4 29.9C13.2667 30.5667 14.1667 31.1334 15.2167 31.55L15.8333 35.9667C15.9 36.3667 16.25 36.6667 16.6667 36.6667H23.3333C23.75 36.6667 24.1 36.3667 24.1667 35.9667L24.7833 31.55C25.8333 31.1167 26.7333 30.5667 27.6 29.9L31.75 31.5834C32.1167 31.7167 32.5667 31.5834 32.7667 31.2167L36.1 25.45C36.3 25.0834 36.2167 24.6334 35.9 24.3834L32.3833 21.6167Z" fill="url(#paint0_linear_31_30)"/>
<defs>
<linearGradient id="paint0_linear_31_30" x1="19.9963" y1="3.33337" x2="19.9963" y2="36.6667" gradientUnits="userSpaceOnUse">
<stop stop-color="#BCB7FF"/>
<stop offset="1" stop-color="#703AB4"/>
</linearGradient>
</defs>
</svg>
