<svg width="22" height="24" viewBox="0 0 22 24" fill="none" xmlns="http://www.w3.org/2000/svg">
<path d="M14.4667 2.80062C14.4667 2.80062 14.2 2.88062 13.7467 3.02729C13.6667 2.78729 13.56 2.48062 13.4 2.18729C12.8933 1.21396 12.1467 0.707291 11.24 0.693958C11.1733 0.693958 11.12 0.693958 11.0533 0.707291C11.0267 0.680625 11 0.640625 10.9733 0.613958C10.5867 0.187291 10.08 -0.0127087 9.48 0.000624594C8.32 0.0406246 7.16 0.880625 6.21333 2.37396C5.54667 3.42729 5.05333 4.74729 4.90667 5.76062C3.57333 6.17396 2.64 6.46729 2.61333 6.46729C1.93333 6.68062 1.92 6.70729 1.82667 7.33396C1.76 7.81396 0 21.4673 0 21.4673L14.64 24.0006V2.77396C14.5733 2.77396 14.5067 2.78729 14.4667 2.80062ZM11.08 3.85396C10.3067 4.09396 9.45333 4.36063 8.61333 4.61396C8.85333 3.69396 9.30667 2.78729 9.86667 2.18729C10.08 1.96062 10.36 1.72062 10.7067 1.57396C11.0267 2.25396 11.0933 3.20062 11.08 3.85396ZM9.49333 0.773958C9.76 0.773958 10 0.827291 10.2 0.960625C9.88 1.12062 9.58667 1.36062 9.29333 1.66729C8.56 2.45396 7.98667 3.69396 7.76 4.88062C7.05333 5.09396 6.37333 5.30729 5.73333 5.50729C6.13333 3.62729 7.70667 0.827291 9.49333 0.773958ZM7.22667 11.4273C7.30667 12.6673 10.5867 12.9473 10.7733 15.8673C10.92 18.1606 9.56 19.734 7.58667 19.854C5.24 20.0006 3.93333 18.614 3.93333 18.614L4.42667 16.494C4.42667 16.494 5.73333 17.4806 6.77333 17.414C7.45333 17.374 7.69333 16.814 7.68 16.4273C7.57333 14.8006 4.90667 14.894 4.74667 12.2273C4.6 9.97396 6.08 7.70729 9.33333 7.49396C10.6 7.41396 11.24 7.73396 11.24 7.73396L10.4933 10.5206C10.4933 10.5206 9.66667 10.1473 8.68 10.2006C7.24 10.294 7.21333 11.2006 7.22667 11.4273ZM11.8533 3.61396C11.84 3.02729 11.7733 2.20062 11.4933 1.49396C12.3733 1.66729 12.8133 2.65396 13 3.25396C12.6667 3.36062 12.28 3.48062 11.8533 3.61396ZM15.12 23.9473L21.2 22.4406C21.2 22.4406 18.5867 4.76062 18.5733 4.64062C18.56 4.52063 18.4533 4.45396 18.36 4.44062C18.2667 4.42729 16.56 4.40063 16.56 4.40063C16.56 4.40063 15.52 3.38729 15.12 3.00062V23.9473Z" fill="url(#paint0_linear_4_20)"/>
<defs>
<linearGradient id="paint0_linear_4_20" x1="10.6" y1="0" x2="10.6" y2="24.0006" gradientUnits="userSpaceOnUse">
<stop stop-color="#BCB7FF"/>
<stop offset="1" stop-color="#703AB4"/>
</linearGradient>
</defs>
</svg>
