<svg width="48" height="48" viewBox="0 0 48 48" fill="none" xmlns="http://www.w3.org/2000/svg">
<path d="M4.49999 23.9999C4.50396 20.4207 5.92755 16.9892 8.45843 14.4583C10.9893 11.9274 14.4208 10.5038 18 10.4999H38.3794L36.4387 8.56111C36.1573 8.27965 35.9992 7.8979 35.9992 7.49986C35.9992 7.10181 36.1573 6.72007 36.4387 6.43861C36.7202 6.15715 37.1019 5.99902 37.5 5.99902C37.898 5.99902 38.2798 6.15715 38.5612 6.43861L43.0612 10.9386C43.2007 11.0779 43.3113 11.2433 43.3868 11.4254C43.4623 11.6075 43.5012 11.8027 43.5012 11.9999C43.5012 12.197 43.4623 12.3922 43.3868 12.5743C43.3113 12.7564 43.2007 12.9218 43.0612 13.0611L38.5612 17.5611C38.2798 17.8426 37.898 18.0007 37.5 18.0007C37.1019 18.0007 36.7202 17.8426 36.4387 17.5611C36.1573 17.2796 35.9992 16.8979 35.9992 16.4999C35.9992 16.1018 36.1573 15.7201 36.4387 15.4386L38.3794 13.4999H18C15.2161 13.5028 12.5471 14.61 10.5787 16.5785C8.61017 18.547 7.50297 21.216 7.49999 23.9999C7.49999 24.3977 7.34195 24.7792 7.06065 25.0605C6.77934 25.3418 6.39781 25.4999 5.99999 25.4999C5.60216 25.4999 5.22063 25.3418 4.93933 25.0605C4.65802 24.7792 4.49999 24.3977 4.49999 23.9999ZM42 22.4999C41.6022 22.4999 41.2206 22.6579 40.9393 22.9392C40.658 23.2205 40.5 23.602 40.5 23.9999C40.497 26.7837 39.3898 29.4527 37.4213 31.4212C35.4528 33.3897 32.7838 34.4969 30 34.4999H9.62061L11.5612 32.5611C11.7006 32.4217 11.8112 32.2563 11.8866 32.0742C11.962 31.8921 12.0008 31.697 12.0008 31.4999C12.0008 31.3028 11.962 31.1076 11.8866 30.9255C11.8112 30.7434 11.7006 30.578 11.5612 30.4386C11.4219 30.2992 11.2564 30.1887 11.0743 30.1133C10.8922 30.0378 10.6971 29.999 10.5 29.999C10.3029 29.999 10.1077 30.0378 9.92564 30.1133C9.74356 30.1887 9.5781 30.2992 9.43874 30.4386L4.93874 34.9386C4.79927 35.0779 4.68864 35.2433 4.61315 35.4254C4.53766 35.6075 4.49881 35.8027 4.49881 35.9999C4.49881 36.197 4.53766 36.3922 4.61315 36.5743C4.68864 36.7564 4.79927 36.9218 4.93874 37.0611L9.43874 41.5611C9.5781 41.7005 9.74356 41.811 9.92564 41.8864C10.1077 41.9619 10.3029 42.0007 10.5 42.0007C10.6971 42.0007 10.8922 41.9619 11.0743 41.8864C11.2564 41.811 11.4219 41.7005 11.5612 41.5611C11.7006 41.4217 11.8112 41.2563 11.8866 41.0742C11.962 40.8921 12.0008 40.697 12.0008 40.4999C12.0008 40.3028 11.962 40.1076 11.8866 39.9255C11.8112 39.7434 11.7006 39.578 11.5612 39.4386L9.62061 37.4999H30C33.5792 37.4959 37.0107 36.0723 39.5415 33.5414C42.0724 31.0105 43.496 27.5791 43.5 23.9999C43.5 23.602 43.342 23.2205 43.0606 22.9392C42.7793 22.6579 42.3978 22.4999 42 22.4999Z" fill="url(#paint0_linear_31_48)"/>
<defs>
<linearGradient id="paint0_linear_31_48" x1="24" y1="5.99902" x2="24" y2="42.0007" gradientUnits="userSpaceOnUse">
<stop stop-color="#BAB3FD"/>
<stop offset="1" stop-color="#703AB4"/>
</linearGradient>
</defs>
</svg>
