<svg width="48" height="48" viewBox="0 0 48 48" fill="none" xmlns="http://www.w3.org/2000/svg">
<path d="M27.548 36.0002L29.9 38.3522C30.2643 38.7294 30.4659 39.2346 30.4613 39.759C30.4568 40.2834 30.2465 40.785 29.8756 41.1558C29.5048 41.5267 29.0032 41.737 28.4788 41.7416C27.9544 41.7461 27.4492 41.5445 27.072 41.1802L21.414 35.5242C21.0391 35.1491 20.8284 34.6405 20.8284 34.1102C20.8284 33.5799 21.0391 33.0713 21.414 32.6962L27.072 27.0382C27.4473 26.6632 27.9562 26.4526 28.4867 26.4528C29.0172 26.453 29.526 26.6639 29.901 27.0392C30.276 27.4145 30.4866 27.9234 30.4864 28.4539C30.4862 28.9844 30.2753 29.4932 29.9 29.8682L27.766 32.0002H32C34.1217 32.0002 36.1566 31.1573 37.6569 29.6571C39.1571 28.1568 40 26.1219 40 24.0002C40 21.8785 39.1571 19.8436 37.6569 18.3433C36.1566 16.8431 34.1217 16.0002 32 16.0002C31.4696 16.0002 30.9609 15.7895 30.5858 15.4144C30.2107 15.0393 30 14.5306 30 14.0002C30 13.4698 30.2107 12.9611 30.5858 12.586C30.9609 12.2109 31.4696 12.0002 32 12.0002C35.1826 12.0002 38.2348 13.2645 40.4853 15.5149C42.7357 17.7654 44 20.8176 44 24.0002C44 27.1828 42.7357 30.235 40.4853 32.4855C38.2348 34.7359 35.1826 36.0002 32 36.0002H27.548ZM20.546 12.0002L18.352 9.8082C18.1662 9.62238 18.0188 9.40178 17.9182 9.15899C17.8176 8.91621 17.7659 8.65599 17.7659 8.3932C17.7659 7.86247 17.9767 7.35348 18.352 6.9782C18.7273 6.60292 19.2363 6.39209 19.767 6.39209C20.2977 6.39209 20.8067 6.60292 21.182 6.9782L26.838 12.6362C27.2129 13.0113 27.4236 13.5199 27.4236 14.0502C27.4236 14.5805 27.2129 15.0891 26.838 15.4642L21.182 21.1202C20.807 21.4955 20.2982 21.7064 19.7677 21.7066C19.2372 21.7068 18.7283 21.4962 18.353 21.1212C17.9777 20.7462 17.7668 20.2374 17.7666 19.7069C17.7664 19.1764 17.977 18.6675 18.352 18.2922L20.646 16.0002H16C13.8783 16.0002 11.8434 16.8431 10.3431 18.3433C8.84285 19.8436 8 21.8785 8 24.0002C8 26.1219 8.84285 28.1568 10.3431 29.6571C11.8434 31.1573 13.8783 32.0002 16 32.0002C16.5304 32.0002 17.0391 32.2109 17.4142 32.586C17.7893 32.9611 18 33.4698 18 34.0002C18 34.5306 17.7893 35.0393 17.4142 35.4144C17.0391 35.7895 16.5304 36.0002 16 36.0002C12.8174 36.0002 9.76515 34.7359 7.51472 32.4855C5.26428 30.235 4 27.1828 4 24.0002C4 20.8176 5.26428 17.7654 7.51472 15.5149C9.76515 13.2645 12.8174 12.0002 16 12.0002H20.546Z" fill="url(#paint0_linear_31_48)"/>
<defs>
<linearGradient id="paint0_linear_31_48" x1="24" y1="6.39209" x2="24" y2="41.7416" gradientUnits="userSpaceOnUse">
<stop stop-color="#BCB7FF"/>
<stop offset="1" stop-color="#703AB4"/>
</linearGradient>
</defs>
</svg>
