<svg width="46" height="42" viewBox="0 0 46 42" fill="none" xmlns="http://www.w3.org/2000/svg">
<g clip-path="url(#clip0_31_82)">
<path d="M14.1415 8.30857L14.1415 8.30849L14.1396 8.30633C13.8999 8.03616 13.5954 7.69293 13.3515 7.19208C13.1066 6.68943 12.9237 6.03023 12.9237 5.12794C12.9237 3.57796 13.6091 2.28153 14.8023 1.37393C15.9944 0.467159 17.691 -0.05 19.7144 -0.05C22.0125 -0.05 23.6818 0.596543 24.7773 1.56928C25.8729 2.54206 26.3907 3.83788 26.3907 5.12794C26.3907 6.03024 26.2075 6.68977 25.9623 7.19259C25.7175 7.69462 25.412 8.03821 25.1721 8.30801L25.1717 8.30848C25.0444 8.45208 24.9576 8.55305 24.9023 8.63367C24.8474 8.71382 24.8281 8.76772 24.8281 8.81738C24.8281 8.92791 24.8309 8.98488 24.8938 9.02961C24.9288 9.05451 24.9859 9.07774 25.0804 9.09609C25.1744 9.11434 25.3016 9.12708 25.4739 9.1336L25.4758 9.13367L25.4758 9.1337L25.5264 9.1375H30.6777C33.495 9.1375 35.5325 11.4804 35.5325 14.6895V19.3901L35.5346 19.4157C35.5413 19.4413 35.5676 19.4971 35.6169 19.5698C35.6668 19.6435 35.7372 19.7301 35.8255 19.8126C36.0024 19.978 36.2468 20.1231 36.5391 20.1231C36.5687 20.1231 36.6086 20.1125 36.6596 20.0891C36.7098 20.0661 36.7669 20.0324 36.8297 19.9904C36.9531 19.9081 37.0935 19.7974 37.2407 19.6813L37.2494 19.6745L37.2519 19.6725C37.9291 19.1383 38.9601 18.325 40.742 18.325C42.0634 18.325 43.3913 18.8375 44.3885 19.9224C45.3858 21.0074 46.0489 22.661 46.0489 24.9375C46.0489 29.1682 43.119 31.3872 40.2216 31.3886C39.3194 31.3886 38.6603 31.2049 38.1579 30.959C37.6561 30.7134 37.3129 30.4067 37.0433 30.1657M14.1415 8.30857L37.0766 30.1284M14.1415 8.30857C14.2688 8.45145 14.3556 8.55241 14.4108 8.63314C14.4657 8.71343 14.485 8.76768 14.485 8.81738C14.485 8.87229 14.4847 8.91306 14.4753 8.94781C14.4668 8.97925 14.4507 9.00588 14.4152 9.03C14.3776 9.05558 14.3166 9.07936 14.2164 9.09825C14.1169 9.11701 13.9824 9.13032 13.8007 9.1375H5.78754C2.68277 9.1375 -0.0489909 11.6085 -0.0489909 14.4375V19.3358H-0.0490316L-0.0489504 19.3378C-0.0236298 19.966 0.166856 20.4806 0.492842 20.8387C0.819454 21.1976 1.27824 21.3952 1.83041 21.3952C2.4607 21.3952 2.92707 21.0362 3.36465 20.6993L3.37085 20.6945L3.34046 20.6548L3.37096 20.6944L3.3748 20.6915C3.963 20.2411 4.62076 19.7375 5.91502 19.7375C8.11554 19.7375 10.4648 21.5544 10.4648 24.9375C10.4648 28.3688 8.07711 30.7439 5.95577 30.7439C4.67499 30.7439 4.00603 30.1925 3.40633 29.6982L3.40386 29.6962L3.37204 29.7346L3.4038 29.6961L3.39506 29.6889C2.94947 29.3204 2.47262 28.9261 1.8291 28.9261C1.27755 28.9261 0.818675 29.1236 0.491872 29.4859C0.165739 29.8475 -0.0249608 30.3687 -0.0502663 31.0098L-0.0503052 31.0098V31.0118L-0.0503052 36.3956C-0.0489779 39.3582 2.73347 42.05 5.78754 42.05L13.8424 42.05L13.8445 42.05C14.4634 42.0246 14.9772 41.8296 15.3369 41.5013C15.6972 41.1724 15.8993 40.7131 15.8993 40.1678C15.8993 39.5083 15.5227 39.0846 15.2019 38.7238L15.2006 38.7223L15.2006 38.7223C14.9848 38.4798 14.7706 38.2386 14.6091 37.8988C14.4479 37.5597 14.338 37.1194 14.338 36.4796C14.338 35.3379 14.8563 34.3988 15.7785 33.7435C16.7022 33.0871 18.0332 32.7142 19.6566 32.7142C21.2806 32.7142 22.6119 33.0871 23.5358 33.7435C24.4581 34.3988 24.9765 35.3379 24.9765 36.4796C24.9765 37.1193 24.8662 37.5596 24.7049 37.8988C24.5433 38.2383 24.3293 38.4794 24.1144 38.7217L24.1138 38.7223M14.1415 8.30857L24.1138 38.7223M37.0433 30.1657L37.0766 30.1284M37.0433 30.1657C37.0433 30.1658 37.0434 30.1658 37.0434 30.1658L37.0766 30.1284M37.0433 30.1657C36.9009 30.0393 36.8004 29.9526 36.7203 29.8972C36.6405 29.8421 36.5873 29.8228 36.5391 29.8228C36.2474 29.8228 36.0035 29.9672 35.8263 30.1349C35.738 30.2185 35.6674 30.307 35.6169 30.3838C35.568 30.4583 35.5407 30.5181 35.5325 30.5503M37.0766 30.1284C36.7928 29.8764 36.6653 29.7728 36.5391 29.7728C35.9214 29.7728 35.5166 30.3844 35.4825 30.5445M35.5325 30.5503V30.5445H35.4825M35.5325 30.5503V36.6476C35.5325 38.2337 35.035 39.5843 34.1779 40.539C33.3204 41.494 32.1055 42.05 30.6777 42.05L25.4983 42.0487H25.4963L25.4963 42.0486C24.855 42.0227 24.3342 41.8319 23.973 41.5057C23.611 41.1788 23.4139 40.7199 23.4139 40.1678C23.4139 39.5098 23.7901 39.0865 24.1103 38.7263L24.1138 38.7223M35.5325 30.5503C35.5321 30.5519 35.5317 30.5534 35.5314 30.5549L35.4825 30.5445M35.4825 30.5445L24.1138 38.7223M24.1138 38.7223L24.1512 38.7555M24.1138 38.7223L25.4983 41.9987C24.2327 41.9475 23.4639 41.2466 23.4639 40.1678C23.4639 39.5288 23.829 39.118 24.1509 38.7559L24.1512 38.7555M24.1512 38.7555L24.1138 38.7223M24.1512 38.7555L24.1532 38.7532C24.5824 38.2696 25.0265 37.7691 25.0265 36.4796C25.0265 34.1618 22.9185 32.6642 19.6566 32.6642C16.396 32.6642 14.288 34.1618 14.288 36.4796C14.288 37.7711 14.7322 38.2712 15.1632 38.7555L24.1138 38.7223M38.1275 20.782L38.1274 20.782L38.1169 20.7903C37.6383 21.1673 37.1723 21.5343 36.5391 21.5343C35.8936 21.5343 35.3204 21.2564 34.894 20.8781C34.4689 20.501 34.1846 20.0195 34.1216 19.6043M38.1275 20.782L25.4891 10.55H25.4893H30.6777C31.8063 10.55 32.6653 11.0682 33.2437 11.844C33.823 12.6211 34.1209 13.6575 34.1209 14.6895V19.4578C34.1209 19.4721 34.12 19.4851 34.119 19.4996C34.1185 19.5075 34.118 19.5159 34.1175 19.5252C34.1163 19.549 34.116 19.5762 34.1216 19.6043M38.1275 20.782C38.7516 20.2883 39.451 19.7375 40.742 19.7375C41.9233 19.7375 42.8942 20.245 43.5713 21.1465C44.2494 22.0493 44.6347 23.3503 44.6347 24.9375C44.6347 26.6741 44.0603 27.9325 43.2238 28.7567C42.3867 29.5815 41.2839 29.9747 40.2216 29.9747C39.5843 29.9747 39.1454 29.8646 38.8071 29.7033C38.4682 29.5417 38.2273 29.3275 37.9851 29.112L37.9814 29.1087C37.6207 28.7876 37.1968 28.4102 36.5391 28.4102C35.8936 28.4102 35.3201 28.6885 34.8935 29.0671C34.4683 29.4446 34.184 29.9264 34.1216 30.3416C34.116 30.3697 34.1163 30.3969 34.1175 30.4207C34.118 30.43 34.1185 30.4384 34.119 30.4463C34.12 30.4608 34.1209 30.4737 34.1209 30.4881V36.6489C34.1209 37.6455 33.8525 38.6438 33.2887 39.3917C32.7261 40.1378 31.8675 40.6375 30.6777 40.6375H25.5256C25.1592 40.6225 24.9894 40.531 24.9092 40.4382C24.8291 40.3455 24.8281 40.2404 24.8281 40.1678C24.8281 40.1188 24.8474 40.0649 24.9023 39.9845C24.9576 39.9037 25.0444 39.8024 25.1717 39.6589L25.1747 39.6554C25.4142 39.3854 25.7184 39.0425 25.9623 38.5425C26.2075 38.0398 26.3907 37.3806 26.3907 36.4783C26.3907 35.1881 25.8685 33.8923 24.7635 32.9195C23.6586 31.9469 21.9749 31.3004 19.6566 31.3004C17.6502 31.3004 15.9679 31.8176 14.786 32.7244C13.603 33.6321 12.9237 34.9285 12.9237 36.4783C12.9237 37.3806 13.1066 38.0398 13.3516 38.5425C13.5964 39.0446 13.9021 39.3882 14.1427 39.6587L14.1428 39.6588C14.1428 39.6589 14.1428 39.6589 14.1428 39.6589C14.2694 39.8018 14.3563 39.9028 14.4117 39.9836C14.4668 40.064 14.4863 40.1182 14.4863 40.1678C14.4863 40.2413 14.4853 40.3471 14.4079 40.4399C14.3309 40.5322 14.168 40.6232 13.8151 40.6375H5.78754C4.67463 40.6375 3.56844 40.1128 2.73981 39.3176C1.91107 38.5223 1.36523 37.4616 1.36523 36.3956V31.039C1.37958 30.6708 1.47006 30.5003 1.56191 30.4199C1.65359 30.3395 1.75763 30.3386 1.83041 30.3386C1.85754 30.3386 1.89489 30.3488 1.94328 30.372C1.99089 30.3948 2.04513 30.4282 2.10492 30.4699C2.22316 30.5522 2.35787 30.6632 2.49906 30.7795L2.50426 30.7838L38.1275 20.782ZM34.1216 19.6043C34.1216 19.6039 34.1215 19.6035 34.1214 19.6031L34.1709 19.5956L34.1219 19.6057C34.1218 19.6052 34.1217 19.6048 34.1216 19.6043ZM13.824 10.55V10.55H5.78754C4.74218 10.55 3.63515 10.95 2.78997 11.6374C1.94521 12.3243 1.36523 13.2954 1.36523 14.4375V19.3084C1.38021 19.6629 1.47072 19.8268 1.56222 19.9041C1.65404 19.9817 1.75817 19.9827 1.83041 19.9827C1.89736 19.9827 1.9909 19.9422 2.11116 19.8659C2.22911 19.7911 2.36321 19.6883 2.50961 19.5757C3.15458 19.0791 4.13692 18.325 5.91502 18.325C8.80976 18.325 11.879 20.6464 11.879 24.9375C11.879 29.2472 8.82497 32.1564 5.95708 32.1564C4.16459 32.1564 3.1607 31.3275 2.50436 30.7839L13.824 10.55ZM13.824 10.55L13.8262 10.55M13.824 10.55L13.8262 10.55M13.8262 10.55L13.8877 10.5473C13.8877 10.5473 13.8878 10.5473 13.8878 10.5473C14.7081 10.5168 15.2136 10.2768 15.5134 9.94277C15.8126 9.60937 15.8993 9.19055 15.8993 8.81738C15.8993 8.15793 15.5227 7.73427 15.2019 7.37342L15.2006 7.37191L15.2006 7.37188M13.8262 10.55L15.2006 7.37188M15.2006 7.37188C14.9848 7.12946 14.7706 6.88818 14.6091 6.54826C14.4479 6.20898 14.338 5.76833 14.338 5.12794C14.338 4.00469 14.8737 3.06542 15.8126 2.40521C16.7528 1.74413 18.0985 1.3625 19.7144 1.3625C21.3206 1.3625 22.6374 1.73534 23.5512 2.39163C24.4635 3.04686 24.9765 3.98594 24.9765 5.12794C24.9765 5.76764 24.8662 6.20829 24.7049 6.54776C24.5432 6.88788 24.329 7.12949 24.1138 7.37194L24.1122 7.37372M15.2006 7.37188L24.1122 7.37372M24.1122 7.37372C23.7916 7.73447 23.4139 8.1594 23.4139 8.81869M24.1122 7.37372L23.4139 8.81869M23.4139 8.81869C23.4139 9.18655 23.4979 9.59806 23.7919 9.92866M23.4139 8.81869L23.7919 9.92866M23.7919 9.92866C24.0861 10.2596 24.5834 10.5012 25.3927 10.5446L23.7919 9.92866Z" fill="url(#paint0_linear_31_82)" stroke="url(#paint1_linear_31_82)" stroke-width="0.1"/>
</g>
<defs>
<linearGradient id="paint0_linear_31_82" x1="22.9993" y1="0" x2="22.9993" y2="42" gradientUnits="userSpaceOnUse">
<stop stop-color="#BAB3FD"/>
<stop offset="0.425" stop-color="#9B80DE"/>
<stop offset="1" stop-color="#703AB4"/>
</linearGradient>
<linearGradient id="paint1_linear_31_82" x1="22.9993" y1="0" x2="22.9993" y2="42" gradientUnits="userSpaceOnUse">
<stop stop-color="#BAB3FD"/>
<stop offset="1" stop-color="#703AB4"/>
</linearGradient>
<clipPath id="clip0_31_82">
<rect width="46" height="42" fill="white"/>
</clipPath>
</defs>
</svg>
