<svg width="52" height="48" viewBox="0 0 52 48" fill="none" xmlns="http://www.w3.org/2000/svg">
<path d="M29.31 43.5H22.9135C22.4894 43.5 22.0826 43.658 21.7827 43.9393C21.4829 44.2206 21.3144 44.6022 21.3144 45C21.3144 45.3978 21.4829 45.7793 21.7827 46.0606C22.0826 46.3419 22.4894 46.5 22.9135 46.5H29.31C29.7341 46.5 30.1409 46.3419 30.4408 46.0606C30.7407 45.7793 30.9091 45.3978 30.9091 45C30.9091 44.6022 30.7407 44.2206 30.4408 43.9393C30.1409 43.658 29.7341 43.5 29.31 43.5ZM30.9091 39H21.3144C20.8903 39 20.4835 39.158 20.1836 39.4393C19.8837 39.7206 19.7153 40.1022 19.7153 40.5C19.7153 40.8978 19.8837 41.2793 20.1836 41.5606C20.4835 41.8419 20.8903 42 21.3144 42H30.9091C31.3332 42 31.74 41.8419 32.0399 41.5606C32.3398 41.2793 32.5083 40.8978 32.5083 40.5C32.5083 40.1022 32.3398 39.7206 32.0399 39.4393C31.74 39.158 31.3332 39 30.9091 39ZM37.4476 5.87717C34.4422 3.05436 30.4164 1.49998 26.1118 1.49998C24.0103 1.49528 21.9287 1.88006 19.9862 2.63222C18.0438 3.38438 16.279 4.48909 14.7931 5.8829C13.3071 7.27672 12.1294 8.93217 11.3276 10.7542C10.5257 12.5762 10.1155 14.5288 10.1205 16.5C10.1205 20.8706 11.9065 24.959 15.0178 27.7162L15.4536 28.0997C17.2536 29.6784 19.7153 31.8412 19.7153 33.75V36C19.7153 36.3978 19.8837 36.7793 20.1836 37.0606C20.4835 37.3419 20.8903 37.5 21.3144 37.5H23.7131C23.9251 37.5 24.1285 37.421 24.2784 37.2803C24.4284 37.1397 24.5126 36.9489 24.5126 36.75V25.7644C24.5127 25.6127 24.4637 25.4646 24.3722 25.3395C24.2806 25.2145 24.1508 25.1185 23.9999 25.064C23.0765 24.7107 22.1993 24.2593 21.3853 23.7187C21.2024 23.6092 21.0452 23.4658 20.9233 23.2974C20.8013 23.1291 20.7172 22.9392 20.676 22.7393C20.6348 22.5394 20.6374 22.3338 20.6836 22.1349C20.7298 21.936 20.8188 21.748 20.9449 21.5824C21.0711 21.4168 21.2319 21.277 21.4175 21.1715C21.6032 21.066 21.8097 20.9971 22.0247 20.9689C22.2396 20.9408 22.4584 20.9539 22.6677 21.0076C22.8771 21.0613 23.0726 21.1544 23.2423 21.2812C23.9819 21.7725 25.4061 22.5 26.1118 22.5C26.8174 22.5 28.2416 21.7706 28.9832 21.2812C29.3285 21.0776 29.7437 21.0054 30.1438 21.0795C30.544 21.1536 30.8989 21.3682 31.1358 21.6796C31.3728 21.991 31.474 22.3756 31.4186 22.7546C31.3633 23.1337 31.1557 23.4786 30.8382 23.7187C30.0241 24.2583 29.1469 24.7088 28.2236 25.0612C28.0727 25.1156 27.9429 25.2117 27.8513 25.3367C27.7598 25.4618 27.7108 25.6099 27.7109 25.7615V36.75C27.7109 36.9489 27.7951 37.1397 27.9451 37.2803C28.095 37.421 28.2984 37.5 28.5104 37.5H30.9091C31.3332 37.5 31.74 37.3419 32.0399 37.0606C32.3398 36.7793 32.5083 36.3978 32.5083 36V33.75C32.5083 31.8862 34.9429 29.7253 36.7209 28.1465L37.2117 27.7097C40.4119 24.8437 42.103 20.9634 42.103 16.5C42.1136 14.5286 41.7076 12.5749 40.9086 10.7516C40.1095 8.92827 38.9332 7.27156 37.4476 5.87717Z" fill="url(#paint0_linear_31_82)"/>
<defs>
<linearGradient id="paint0_linear_31_82" x1="26.1118" y1="1.49994" x2="26.1118" y2="46.5" gradientUnits="userSpaceOnUse">
<stop stop-color="#BCB7FF"/>
<stop offset="1" stop-color="#703AB4"/>
</linearGradient>
</defs>
</svg>
