<svg width="200" height="37" viewBox="0 0 200 37" fill="none" xmlns="http://www.w3.org/2000/svg">
<path d="M18.5938 34.8125C18.4552 34.8128 18.3179 34.7869 18.1891 34.7359C18.0099 34.6645 17.8528 34.547 17.7337 34.3952C17.6146 34.2435 17.5377 34.0629 17.5109 33.8719L16.4172 26.2156L18.6047 25.9094L19.425 31.6734L22.9688 28.8188V20.5938C22.9679 20.4498 22.9955 20.3071 23.0499 20.1739C23.1044 20.0406 23.1846 19.9194 23.2859 19.8172L27.7375 15.3656C28.6548 14.4546 29.3823 13.3707 29.8779 12.1767C30.3735 10.9826 30.6275 9.70219 30.625 8.40938V6.37501H28.5906C27.2978 6.37255 26.0174 6.62649 24.8233 7.12212C23.6293 7.61775 22.5454 8.34525 21.6344 9.26251L17.1828 13.7141C17.0806 13.8154 16.9594 13.8956 16.8261 13.9501C16.6929 14.0045 16.5502 14.0321 16.4063 14.0313H8.18125L5.32656 17.5969L11.0906 18.4172L10.7844 20.6047L3.12813 19.5109C2.9371 19.4841 2.75655 19.4073 2.6048 19.2882C2.45305 19.1691 2.3355 19.012 2.26406 18.8328C2.19175 18.6524 2.16883 18.4559 2.19766 18.2637C2.2265 18.0714 2.30605 17.8904 2.42813 17.7391L6.80313 12.2703C6.90388 12.1394 7.03299 12.033 7.18074 11.9591C7.3285 11.8853 7.49107 11.8458 7.65625 11.8438H15.9578L20.0813 7.70938C21.196 6.5884 22.5221 5.69987 23.9828 5.09531C25.4436 4.49075 27.0098 4.18218 28.5906 4.18751H30.625C31.2052 4.18751 31.7616 4.41797 32.1718 4.82821C32.582 5.23845 32.8125 5.79485 32.8125 6.37501V8.40938C32.8178 9.99025 32.5093 11.5565 31.9047 13.0172C31.3001 14.4779 30.4116 15.804 29.2906 16.9188L25.1563 21.0422V29.3438C25.1555 29.508 25.1177 29.67 25.0458 29.8177C24.9738 29.9654 24.8695 30.095 24.7406 30.1969L19.2719 34.5719C19.0794 34.7263 18.8405 34.8111 18.5938 34.8125Z" fill="url(#paint0_linear_1_45)"/>
<path d="M48.646 28V16.338L47.526 16.142C47.2367 16.086 46.9987 15.9833 46.812 15.834C46.6347 15.6847 46.546 15.47 46.546 15.19V13.65H48.646V12.698C48.646 11.8767 48.772 11.1347 49.024 10.472C49.2853 9.8 49.654 9.23533 50.13 8.778C50.606 8.31133 51.1893 7.952 51.88 7.7C52.5707 7.448 53.35 7.322 54.218 7.322C54.554 7.322 54.8713 7.34533 55.17 7.392C55.478 7.42933 55.786 7.49 56.094 7.574L56.01 9.478C55.9913 9.76733 55.8653 9.95867 55.632 10.052C55.408 10.136 55.156 10.178 54.876 10.178C54.484 10.178 54.1293 10.22 53.812 10.304C53.504 10.388 53.2427 10.5327 53.028 10.738C52.8133 10.934 52.65 11.2047 52.538 11.55C52.426 11.886 52.37 12.306 52.37 12.81V13.65H55.954V16.338H52.496V28H48.646ZM70.4105 13.566V28H68.0305C67.5359 28 67.2185 27.776 67.0785 27.328L66.8265 26.32C66.5372 26.6 66.2385 26.8567 65.9305 27.09C65.6225 27.3233 65.2912 27.524 64.9365 27.692C64.5912 27.86 64.2132 27.9907 63.8025 28.084C63.4012 28.1773 62.9625 28.224 62.4865 28.224C61.7025 28.224 61.0025 28.0887 60.3865 27.818C59.7799 27.5473 59.2712 27.1693 58.8605 26.684C58.4499 26.1987 58.1372 25.62 57.9225 24.948C57.7079 24.276 57.6005 23.5387 57.6005 22.736V13.566H61.4645V22.736C61.4645 23.5387 61.6465 24.164 62.0105 24.612C62.3839 25.0507 62.9345 25.27 63.6625 25.27C64.2039 25.27 64.7125 25.1533 65.1885 24.92C65.6645 24.6773 66.1172 24.3507 66.5465 23.94V13.566H70.4105ZM78.5839 28.224C77.9306 28.224 77.3519 28.1307 76.8479 27.944C76.3439 27.748 75.9192 27.4727 75.5739 27.118C75.2286 26.7633 74.9672 26.334 74.7899 25.83C74.6126 25.326 74.5239 24.7567 74.5239 24.122V16.338H73.1659C72.9606 16.338 72.7832 16.2727 72.6339 16.142C72.4939 16.0113 72.4239 15.8153 72.4239 15.554V14.042L74.7339 13.622L75.5179 9.884C75.6206 9.464 75.9052 9.254 76.3719 9.254H78.3879V13.65H82.1119V16.338H78.3879V23.87C78.3879 24.2713 78.4812 24.5887 78.6679 24.822C78.8639 25.0553 79.1392 25.172 79.4939 25.172C79.6806 25.172 79.8392 25.1533 79.9699 25.116C80.1006 25.0693 80.2126 25.0227 80.3059 24.976C80.3992 24.92 80.4832 24.8733 80.5579 24.836C80.6419 24.7893 80.7259 24.766 80.8099 24.766C80.9219 24.766 81.0152 24.794 81.0899 24.85C81.1646 24.8967 81.2392 24.9807 81.3139 25.102L82.4759 26.95C81.9439 27.37 81.3419 27.6873 80.6699 27.902C79.9979 28.1167 79.3026 28.224 78.5839 28.224ZM96.8519 13.566V28H94.4719C93.9773 28 93.6599 27.776 93.5199 27.328L93.2679 26.32C92.9786 26.6 92.6799 26.8567 92.3719 27.09C92.0639 27.3233 91.7326 27.524 91.3779 27.692C91.0326 27.86 90.6546 27.9907 90.2439 28.084C89.8426 28.1773 89.4039 28.224 88.9279 28.224C88.1439 28.224 87.4439 28.0887 86.8279 27.818C86.2213 27.5473 85.7126 27.1693 85.3019 26.684C84.8913 26.1987 84.5786 25.62 84.3639 24.948C84.1493 24.276 84.0419 23.5387 84.0419 22.736V13.566H87.9059V22.736C87.9059 23.5387 88.0879 24.164 88.4519 24.612C88.8253 25.0507 89.3759 25.27 90.1039 25.27C90.6453 25.27 91.1539 25.1533 91.6299 24.92C92.1059 24.6773 92.5586 24.3507 92.9879 23.94V13.566H96.8519ZM103.667 15.946C104.125 15.1247 104.652 14.476 105.249 14C105.847 13.524 106.547 13.286 107.349 13.286C108.003 13.286 108.535 13.44 108.945 13.748L108.693 16.604C108.647 16.7907 108.572 16.9213 108.469 16.996C108.376 17.0613 108.245 17.094 108.077 17.094C107.928 17.094 107.713 17.0753 107.433 17.038C107.153 16.9913 106.892 16.968 106.649 16.968C106.295 16.968 105.977 17.0193 105.697 17.122C105.427 17.2247 105.184 17.3693 104.969 17.556C104.755 17.7427 104.559 17.9713 104.381 18.242C104.213 18.5127 104.055 18.8207 103.905 19.166V28H100.041V13.566H102.323C102.715 13.566 102.986 13.636 103.135 13.776C103.285 13.916 103.392 14.1587 103.457 14.504L103.667 15.946ZM119.424 19.082C119.424 18.6807 119.368 18.298 119.256 17.934C119.153 17.57 118.985 17.248 118.752 16.968C118.519 16.688 118.225 16.4687 117.87 16.31C117.515 16.142 117.091 16.058 116.596 16.058C115.672 16.058 114.949 16.3193 114.426 16.842C113.903 17.3647 113.563 18.1113 113.404 19.082H119.424ZM113.348 21.378C113.469 22.7313 113.852 23.7207 114.496 24.346C115.149 24.9713 115.999 25.284 117.044 25.284C117.576 25.284 118.033 25.2233 118.416 25.102C118.808 24.9713 119.149 24.8313 119.438 24.682C119.737 24.5233 120.003 24.3833 120.236 24.262C120.479 24.1313 120.717 24.066 120.95 24.066C121.249 24.066 121.482 24.178 121.65 24.402L122.77 25.802C122.359 26.278 121.907 26.6747 121.412 26.992C120.917 27.3 120.404 27.5473 119.872 27.734C119.34 27.9113 118.803 28.0327 118.262 28.098C117.721 28.1727 117.198 28.21 116.694 28.21C115.686 28.21 114.743 28.0467 113.866 27.72C112.998 27.384 112.237 26.894 111.584 26.25C110.94 25.5967 110.431 24.7893 110.058 23.828C109.685 22.8667 109.498 21.7513 109.498 20.482C109.498 19.502 109.657 18.578 109.974 17.71C110.301 16.842 110.767 16.086 111.374 15.442C111.981 14.798 112.718 14.2893 113.586 13.916C114.454 13.5333 115.434 13.342 116.526 13.342C117.45 13.342 118.299 13.4913 119.074 13.79C119.858 14.0793 120.53 14.504 121.09 15.064C121.659 15.624 122.098 16.3147 122.406 17.136C122.723 17.948 122.882 18.8767 122.882 19.922C122.882 20.2113 122.868 20.4493 122.84 20.636C122.812 20.8227 122.765 20.972 122.7 21.084C122.635 21.196 122.546 21.2753 122.434 21.322C122.322 21.3593 122.177 21.378 122 21.378H113.348ZM125.658 28V13.818H127.156C127.51 13.818 127.73 13.9907 127.814 14.336L127.996 15.792C128.518 15.148 129.106 14.6207 129.76 14.21C130.413 13.7993 131.169 13.594 132.028 13.594C132.98 13.594 133.75 13.86 134.338 14.392C134.935 14.924 135.364 15.6427 135.626 16.548C135.831 16.0347 136.092 15.5913 136.41 15.218C136.736 14.8447 137.1 14.5367 137.502 14.294C137.903 14.0513 138.328 13.874 138.776 13.762C139.233 13.65 139.695 13.594 140.162 13.594C140.908 13.594 141.571 13.7153 142.15 13.958C142.738 14.1913 143.232 14.5367 143.634 14.994C144.044 15.4513 144.357 16.016 144.572 16.688C144.786 17.3507 144.894 18.1113 144.894 18.97V28H142.388V18.97C142.388 17.8593 142.145 17.0193 141.66 16.45C141.174 15.8713 140.474 15.582 139.56 15.582C139.149 15.582 138.757 15.6567 138.384 15.806C138.02 15.946 137.698 16.156 137.418 16.436C137.138 16.716 136.914 17.0707 136.746 17.5C136.587 17.92 136.508 18.41 136.508 18.97V28H134.002V18.97C134.002 17.8313 133.773 16.982 133.316 16.422C132.858 15.862 132.191 15.582 131.314 15.582C130.698 15.582 130.128 15.75 129.606 16.086C129.083 16.4127 128.602 16.8607 128.164 17.43V28H125.658ZM158.173 19.362C158.173 18.7833 158.089 18.256 157.921 17.78C157.762 17.2947 157.524 16.8793 157.207 16.534C156.899 16.1793 156.521 15.9087 156.073 15.722C155.625 15.526 155.116 15.428 154.547 15.428C153.352 15.428 152.405 15.778 151.705 16.478C151.014 17.1687 150.585 18.13 150.417 19.362H158.173ZM160.189 26.012C159.881 26.3853 159.512 26.712 159.083 26.992C158.654 27.2627 158.192 27.4867 157.697 27.664C157.212 27.8413 156.708 27.972 156.185 28.056C155.662 28.1493 155.144 28.196 154.631 28.196C153.651 28.196 152.746 28.0327 151.915 27.706C151.094 27.37 150.38 26.8847 149.773 26.25C149.176 25.606 148.709 24.8127 148.373 23.87C148.037 22.9273 147.869 21.8447 147.869 20.622C147.869 19.6327 148.018 18.7087 148.317 17.85C148.625 16.9913 149.064 16.2493 149.633 15.624C150.202 14.9893 150.898 14.4947 151.719 14.14C152.54 13.776 153.464 13.594 154.491 13.594C155.34 13.594 156.124 13.7387 156.843 14.028C157.571 14.308 158.196 14.7187 158.719 15.26C159.251 15.792 159.666 16.4547 159.965 17.248C160.264 18.032 160.413 18.928 160.413 19.936C160.413 20.328 160.371 20.5893 160.287 20.72C160.203 20.8507 160.044 20.916 159.811 20.916H150.333C150.361 21.812 150.482 22.5913 150.697 23.254C150.921 23.9167 151.229 24.472 151.621 24.92C152.013 25.3587 152.48 25.69 153.021 25.914C153.562 26.1287 154.169 26.236 154.841 26.236C155.466 26.236 156.003 26.166 156.451 26.026C156.908 25.8767 157.3 25.718 157.627 25.55C157.954 25.382 158.224 25.228 158.439 25.088C158.663 24.9387 158.854 24.864 159.013 24.864C159.218 24.864 159.377 24.9433 159.489 25.102L160.189 26.012ZM165.84 16.66C166.288 15.6893 166.839 14.9333 167.492 14.392C168.145 13.8413 168.943 13.566 169.886 13.566C170.185 13.566 170.469 13.5987 170.74 13.664C171.02 13.7293 171.267 13.832 171.482 13.972L171.3 15.834C171.244 16.0673 171.104 16.184 170.88 16.184C170.749 16.184 170.558 16.156 170.306 16.1C170.054 16.044 169.769 16.016 169.452 16.016C169.004 16.016 168.603 16.0813 168.248 16.212C167.903 16.3427 167.59 16.5387 167.31 16.8C167.039 17.052 166.792 17.3693 166.568 17.752C166.353 18.1253 166.157 18.5547 165.98 19.04V28H163.474V13.818H164.902C165.173 13.818 165.359 13.8693 165.462 13.972C165.565 14.0747 165.635 14.252 165.672 14.504L165.84 16.66ZM182.969 16.338C182.894 16.4407 182.82 16.52 182.745 16.576C182.67 16.632 182.568 16.66 182.437 16.66C182.297 16.66 182.143 16.604 181.975 16.492C181.807 16.3707 181.597 16.24 181.345 16.1C181.102 15.96 180.799 15.834 180.435 15.722C180.08 15.6007 179.642 15.54 179.119 15.54C178.419 15.54 177.803 15.666 177.271 15.918C176.739 16.1607 176.291 16.5153 175.927 16.982C175.572 17.4487 175.302 18.0133 175.115 18.676C174.938 19.3387 174.849 20.0807 174.849 20.902C174.849 21.7607 174.947 22.526 175.143 23.198C175.339 23.8607 175.614 24.4207 175.969 24.878C176.333 25.326 176.767 25.6713 177.271 25.914C177.784 26.1473 178.358 26.264 178.993 26.264C179.6 26.264 180.099 26.194 180.491 26.054C180.883 25.9047 181.205 25.7413 181.457 25.564C181.718 25.3867 181.933 25.228 182.101 25.088C182.278 24.9387 182.451 24.864 182.619 24.864C182.824 24.864 182.983 24.9433 183.095 25.102L183.795 26.012C183.487 26.3947 183.137 26.7213 182.745 26.992C182.353 27.2627 181.928 27.4913 181.471 27.678C181.023 27.8553 180.552 27.986 180.057 28.07C179.562 28.154 179.058 28.196 178.545 28.196C177.658 28.196 176.832 28.0327 176.067 27.706C175.311 27.3793 174.653 26.908 174.093 26.292C173.533 25.6667 173.094 24.9013 172.777 23.996C172.46 23.0907 172.301 22.0593 172.301 20.902C172.301 19.8473 172.446 18.872 172.735 17.976C173.034 17.08 173.463 16.31 174.023 15.666C174.592 15.0127 175.288 14.504 176.109 14.14C176.94 13.776 177.892 13.594 178.965 13.594C179.964 13.594 180.841 13.7573 181.597 14.084C182.362 14.4013 183.039 14.854 183.627 15.442L182.969 16.338ZM195.716 19.362C195.716 18.7833 195.632 18.256 195.464 17.78C195.305 17.2947 195.067 16.8793 194.75 16.534C194.442 16.1793 194.064 15.9087 193.616 15.722C193.168 15.526 192.659 15.428 192.09 15.428C190.895 15.428 189.948 15.778 189.248 16.478C188.557 17.1687 188.128 18.13 187.96 19.362H195.716ZM197.732 26.012C197.424 26.3853 197.055 26.712 196.626 26.992C196.197 27.2627 195.735 27.4867 195.24 27.664C194.755 27.8413 194.251 27.972 193.728 28.056C193.205 28.1493 192.687 28.196 192.174 28.196C191.194 28.196 190.289 28.0327 189.458 27.706C188.637 27.37 187.923 26.8847 187.316 26.25C186.719 25.606 186.252 24.8127 185.916 23.87C185.58 22.9273 185.412 21.8447 185.412 20.622C185.412 19.6327 185.561 18.7087 185.86 17.85C186.168 16.9913 186.607 16.2493 187.176 15.624C187.745 14.9893 188.441 14.4947 189.262 14.14C190.083 13.776 191.007 13.594 192.034 13.594C192.883 13.594 193.667 13.7387 194.386 14.028C195.114 14.308 195.739 14.7187 196.262 15.26C196.794 15.792 197.209 16.4547 197.508 17.248C197.807 18.032 197.956 18.928 197.956 19.936C197.956 20.328 197.914 20.5893 197.83 20.72C197.746 20.8507 197.587 20.916 197.354 20.916H187.876C187.904 21.812 188.025 22.5913 188.24 23.254C188.464 23.9167 188.772 24.472 189.164 24.92C189.556 25.3587 190.023 25.69 190.564 25.914C191.105 26.1287 191.712 26.236 192.384 26.236C193.009 26.236 193.546 26.166 193.994 26.026C194.451 25.8767 194.843 25.718 195.17 25.55C195.497 25.382 195.767 25.228 195.982 25.088C196.206 24.9387 196.397 24.864 196.556 24.864C196.761 24.864 196.92 24.9433 197.032 25.102L197.732 26.012Z" fill="url(#paint1_linear_1_45)"/>
<defs>
<linearGradient id="paint0_linear_1_45" x1="7.45366" y1="3.94444" x2="32.0833" y2="35.3796" gradientUnits="userSpaceOnUse">
<stop stop-color="#8B81FF"/>
<stop offset="1" stop-color="#703AB4"/>
</linearGradient>
<linearGradient id="paint1_linear_1_45" x1="46" y1="17" x2="200" y2="17" gradientUnits="userSpaceOnUse">
<stop stop-color="white"/>
<stop offset="1" stop-color="#BBBBBB"/>
</linearGradient>
</defs>
</svg>
