<svg width="41" height="40" viewBox="0 0 41 40" fill="none" xmlns="http://www.w3.org/2000/svg">
<path d="M29.0844 21.6666C25.9844 21.6666 23.3844 23.8833 22.7177 26.8333C21.1344 26.1499 19.6844 26.3333 18.5844 26.8166C17.901 23.8499 15.301 21.6666 12.2177 21.6666C8.60104 21.6666 5.65104 24.6499 5.65104 28.3333C5.65104 32.0166 8.60104 34.9999 12.2177 34.9999C15.651 34.9999 18.451 32.2999 18.7177 28.8666C19.2844 28.4666 20.7677 27.7166 22.5844 28.8999C22.8844 32.3166 25.651 34.9999 29.0844 34.9999C32.701 34.9999 35.651 32.0166 35.651 28.3333C35.651 24.6499 32.701 21.6666 29.0844 21.6666ZM12.2177 33.1C9.61771 33.1 7.53438 30.9666 7.53438 28.3333C7.53438 25.6999 9.63438 23.5666 12.2177 23.5666C14.8177 23.5666 16.901 25.6999 16.901 28.3333C16.901 30.9666 14.8177 33.1 12.2177 33.1ZM29.0844 33.1C26.4844 33.1 24.401 30.9666 24.401 28.3333C24.401 25.6999 26.4844 23.5666 29.0844 23.5666C31.6844 23.5666 33.7844 25.6999 33.7844 28.3333C33.7844 30.9666 31.6677 33.1 29.0844 33.1ZM37.3177 17.4999H3.98438V19.9999H37.3177V17.4999ZM26.5344 4.38328C26.1677 3.56662 25.2344 3.13328 24.351 3.41662L20.651 4.64995L16.9344 3.41662L16.851 3.39995C15.9677 3.14995 15.0344 3.61662 14.701 4.46662L10.651 14.9999H30.651L26.5844 4.46662L26.5344 4.38328Z" fill="url(#paint0_linear_345_8)"/>
<defs>
<linearGradient id="paint0_linear_345_8" x1="20.651" y1="3.32983" x2="20.651" y2="34.9999" gradientUnits="userSpaceOnUse">
<stop stop-color="#BCB7FF"/>
<stop offset="1" stop-color="#8B81FF"/>
</linearGradient>
</defs>
</svg>
